<svg viewBox="0 0 330 200" xmlns="http://www.w3.org/2000/svg"><g><g><g><g><g><line x1="51.5625" y1="177" x2="46.5625" y2="177" style="visibility: inherit;" fill="rgb(0, 0, 0)" stroke="rgb(204, 204, 204)" stroke-width="1px"></line><line x1="51.5625" y1="154.87499999999997" x2="46.5625" y2="154.87499999999997" style="visibility: inherit;" fill="rgb(0, 0, 0)" stroke="rgb(204, 204, 204)" stroke-width="1px"></line><line x1="51.5625" y1="132.74999999999997" x2="46.5625" y2="132.74999999999997" style="visibility: inherit;" fill="rgb(0, 0, 0)" stroke="rgb(204, 204, 204)" stroke-width="1px"></line><line x1="51.5625" y1="110.62499999999996" x2="46.5625" y2="110.62499999999996" style="visibility: inherit;" fill="rgb(0, 0, 0)" stroke="rgb(204, 204, 204)" stroke-width="1px"></line><line x1="51.5625" y1="88.49999999999994" x2="46.5625" y2="88.49999999999994" style="visibility: inherit;" fill="rgb(0, 0, 0)" stroke="rgb(204, 204, 204)" stroke-width="1px"></line><line x1="51.5625" y1="66.37500000000004" x2="46.5625" y2="66.37500000000004" style="visibility: inherit;" fill="rgb(0, 0, 0)" stroke="rgb(204, 204, 204)" stroke-width="1px"></line><line x1="51.5625" y1="44.25000000000004" x2="46.5625" y2="44.25000000000004" style="visibility: inherit;" fill="rgb(0, 0, 0)" stroke="rgb(204, 204, 204)" stroke-width="1px"></line><line x1="51.5625" y1="22.12500000000002" x2="46.5625" y2="22.12500000000002" style="visibility: inherit;" fill="rgb(0, 0, 0)" stroke="rgb(204, 204, 204)" stroke-width="1px"></line><line x1="51.5625" y1="0" x2="46.5625" y2="0" style="visibility: inherit;" fill="rgb(0, 0, 0)" stroke="rgb(204, 204, 204)" stroke-width="1px"></line></g><g transform="translate(41.5625, 0)"><text x="0" y="177" dx="0em" dy="0.3em" style="text-anchor: end; visibility: hidden; font-family: Roboto, sans-serif; font-size: 12px; font-weight: 200;" fill="rgb(33, 33, 33)" stroke="none" stroke-width="1px">0.72</text><text x="0" y="154.87499999999997" dx="0em" dy="0.3em" style="text-anchor: end; visibility: inherit; font-family: Roboto, sans-serif; font-size: 12px; font-weight: 200;" fill="rgb(33, 33, 33)" stroke="none" stroke-width="1px">0.74</text><text x="0" y="132.74999999999997" dx="0em" dy="0.3em" style="text-anchor: end; visibility: hidden; font-family: Roboto, sans-serif; font-size: 12px; font-weight: 200;" fill="rgb(33, 33, 33)" stroke="none" stroke-width="1px">0.76</text><text x="0" y="110.62499999999996" dx="0em" dy="0.3em" style="text-anchor: end; visibility: inherit; font-family: Roboto, sans-serif; font-size: 12px; font-weight: 200;" fill="rgb(33, 33, 33)" stroke="none" stroke-width="1px">0.78</text><text x="0" y="88.49999999999994" dx="0em" dy="0.3em" style="text-anchor: end; visibility: hidden; font-family: Roboto, sans-serif; font-size: 12px; font-weight: 200;" fill="rgb(33, 33, 33)" stroke="none" stroke-width="1px">0.8</text><text x="0" y="66.37500000000004" dx="0em" dy="0.3em" style="text-anchor: end; visibility: inherit; font-family: Roboto, sans-serif; font-size: 12px; font-weight: 200;" fill="rgb(33, 33, 33)" stroke="none" stroke-width="1px">0.82</text><text x="0" y="44.25000000000004" dx="0em" dy="0.3em" style="text-anchor: end; visibility: hidden; font-family: Roboto, sans-serif; font-size: 12px; font-weight: 200;" fill="rgb(33, 33, 33)" stroke="none" stroke-width="1px">0.84</text><text x="0" y="22.12500000000002" dx="0em" dy="0.3em" style="text-anchor: end; visibility: inherit; font-family: Roboto, sans-serif; font-size: 12px; font-weight: 200;" fill="rgb(33, 33, 33)" stroke="none" stroke-width="1px">0.86</text><text x="0" y="0" dx="0em" dy="0.3em" style="text-anchor: end; visibility: hidden; font-family: Roboto, sans-serif; font-size: 12px; font-weight: 200;" fill="rgb(33, 33, 33)" stroke="none" stroke-width="1px">0.88</text></g><line x1="51.5625" y1="0" x2="51.5625" y2="177" fill="rgb(0, 0, 0)" stroke="rgb(204, 204, 204)" stroke-width="1px"></line></g></g><g transform="translate(51, 0)" clip-path="url(#clip_0)"><clipPath id="clip_0"><rect width="278" height="177"></rect></clipPath><g><g><g><line x1="0" y1="0" x2="0" y2="177" fill="rgb(0, 0, 0)" stroke="rgb(66, 66, 66)" stroke-width="1px" opacity="0.25"></line><line x1="25.3125" y1="0" x2="25.3125" y2="177" fill="rgb(0, 0, 0)" stroke="rgb(66, 66, 66)" stroke-width="1px" opacity="0.25"></line><line x1="50.625" y1="0" x2="50.625" y2="177" fill="rgb(0, 0, 0)" stroke="rgb(66, 66, 66)" stroke-width="1px" opacity="0.25"></line><line x1="75.9375" y1="0" x2="75.9375" y2="177" fill="rgb(0, 0, 0)" stroke="rgb(66, 66, 66)" stroke-width="1px" opacity="0.25"></line><line x1="101.25" y1="0" x2="101.25" y2="177" fill="rgb(0, 0, 0)" stroke="rgb(66, 66, 66)" stroke-width="1px" opacity="0.25"></line><line x1="126.5625" y1="0" x2="126.5625" y2="177" fill="rgb(0, 0, 0)" stroke="rgb(66, 66, 66)" stroke-width="1px" opacity="0.25"></line><line x1="151.875" y1="0" x2="151.875" y2="177" fill="rgb(0, 0, 0)" stroke="rgb(66, 66, 66)" stroke-width="1px" opacity="0.25"></line><line x1="177.1875" y1="0" x2="177.1875" y2="177" fill="rgb(0, 0, 0)" stroke="rgb(66, 66, 66)" stroke-width="1px" opacity="0.25"></line><line x1="202.5" y1="0" x2="202.5" y2="177" fill="rgb(0, 0, 0)" stroke="rgb(66, 66, 66)" stroke-width="1px" opacity="0.25"></line><line x1="227.8125" y1="0" x2="227.8125" y2="177" fill="rgb(0, 0, 0)" stroke="rgb(66, 66, 66)" stroke-width="1px" opacity="0.25"></line><line x1="253.125" y1="0" x2="253.125" y2="177" fill="rgb(0, 0, 0)" stroke="rgb(66, 66, 66)" stroke-width="1px" opacity="0.25"></line><line x1="278.4375" y1="0" x2="278.4375" y2="177" fill="rgb(0, 0, 0)" stroke="rgb(66, 66, 66)" stroke-width="1px" opacity="0.25"></line></g><g><line x1="0" y1="177" x2="278.4375" y2="177" fill="rgb(0, 0, 0)" stroke="rgb(66, 66, 66)" stroke-width="1px" opacity="0.25"></line><line x1="0" y1="154.87499999999997" x2="278.4375" y2="154.87499999999997" fill="rgb(0, 0, 0)" stroke="rgb(66, 66, 66)" stroke-width="1px" opacity="0.25"></line><line x1="0" y1="132.74999999999997" x2="278.4375" y2="132.74999999999997" fill="rgb(0, 0, 0)" stroke="rgb(66, 66, 66)" stroke-width="1px" opacity="0.25"></line><line x1="0" y1="110.62499999999996" x2="278.4375" y2="110.62499999999996" fill="rgb(0, 0, 0)" stroke="rgb(66, 66, 66)" stroke-width="1px" opacity="0.25"></line><line x1="0" y1="88.49999999999994" x2="278.4375" y2="88.49999999999994" fill="rgb(0, 0, 0)" stroke="rgb(66, 66, 66)" stroke-width="1px" opacity="0.25"></line><line x1="0" y1="66.37500000000004" x2="278.4375" y2="66.37500000000004" fill="rgb(0, 0, 0)" stroke="rgb(66, 66, 66)" stroke-width="1px" opacity="0.25"></line><line x1="0" y1="44.25000000000004" x2="278.4375" y2="44.25000000000004" fill="rgb(0, 0, 0)" stroke="rgb(66, 66, 66)" stroke-width="1px" opacity="0.25"></line><line x1="0" y1="22.12500000000002" x2="278.4375" y2="22.12500000000002" fill="rgb(0, 0, 0)" stroke="rgb(66, 66, 66)" stroke-width="1px" opacity="0.25"></line><line x1="0" y1="0" x2="278.4375" y2="0" fill="rgb(0, 0, 0)" stroke="rgb(66, 66, 66)" stroke-width="1px" opacity="0.25"></line></g></g></g><g><g><line x1="0" y1="973.4999999999999" x2="278.4375" y2="973.4999999999999" fill="rgb(0, 0, 0)" stroke="rgb(153, 153, 153)" stroke-width="1.5px"></line></g></g><g><g><line x1="25.3125" y1="0" x2="25.3125" y2="177" fill="rgb(0, 0, 0)" stroke="rgb(153, 153, 153)" stroke-width="1.5px"></line></g></g><g><g><g><g><g><path stroke="rgb(51, 187, 238)" stroke-width="2px" d="M30.375,172.21988520026204L35.43749999999999,163.62888812938255L40.5,141.08810275888666L45.5625,131.24381818715344L50.625,114.57603952703006L55.6875,107.03790171875907L60.75,97.9509678454581L65.8125,86.57791867057698L70.87499999999999,77.19884376646338L75.9375,73.36690267182288L81,67.38140312407148L86.0625,66.21795802886737L91.125,65.45965313317615L96.1875,62.79024054606114L101.25,58.99908184015913L106.3125,56.424435571940904L111.375,51.94144420928947L116.43749999999999,48.72936835558436L121.5,46.0460558932098L126.5625,42.5963263537584L131.625,40.23307362580761L136.6875,37.81881588919496L141.74999999999997,35.20811841855532L146.8125,35.22781571802874L151.875,35.62908126147767L156.9375,34.26430919938998L162,34.77979454656521L167.0625,34.81367281971506L172.125,34.70751613041743L177.1875,32.920659093782L182.25,32.775168258507975L187.3125,32.69573332553793L192.375,31.40497526602037L197.4375,30.482232152662068L202.5,29.221488249939874L207.5625,28.439771755361335L212.625,28.318937981525295L217.6875,27.431677112017887L222.75,26.415055734978058L227.8125,24.972389447685853L232.87499999999997,23.86183126431333L237.9375,23.074593761177706L243,22.783662692926868L248.0625,22.51211554073572L253.125,22.100289533095058L258.1875,21.75031364758464" style="fill: none;" fill="none"></path></g><g><path stroke="rgb(0, 119, 187)" stroke-width="2px" d="M45.5625,185.85575488295535L50.625,173.57728927088198L55.6875,161.27246565351928L60.75,145.12442550225063L65.8125,136.98935693097997L70.87499999999999,133.17663395843326L75.9375,126.9857118675815L81,122.71269370686753L86.0625,115.4274875014472L91.125,107.06768167944054L96.1875,100.99644169590775L101.25,97.1177029994863L106.3125,91.49174381012192L111.375,90.37767605471541L116.43749999999999,84.26671781715805L121.5,81.49614789167364L126.5625,78.52571582834571L131.625,76.46338414818271L136.6875,77.44190299544147L141.74999999999997,74.80930462968965L146.8125,73.37814928225615L151.875,70.6232306123126L156.9375,69.46008083694629L162,72.96645569342743L167.0625,71.15551139498542L172.125,67.93655025914566L177.1875,67.41477253332856L182.25,65.49097758216085L187.3125,62.758796482588174L192.375,61.36703901332057L197.4375,61.00623589307404L202.5,60.02058906366919L207.5625,59.963922017468015L212.625,59.504411362839015L217.6875,57.87310217919618L222.75,56.68318778757865L227.8125,56.442588895416186L232.87499999999997,57.22889567773281L237.9375,56.49547495710321L243,56.4021444433212L248.0625,56.02989402992662L253.125,55.41476447384082L258.1875,54.89201819968471" style="fill: none;" fill="none"></path></g><g><path stroke="rgb(255, 112, 67)" stroke-width="2px" d="M30.375,200.73171561956403L35.43749999999999,144.4384727316935L40.5,123.07523143500006L45.5625,101.16063013173782L50.625,87.97873673324409L55.6875,81.02102496227988L60.75,72.68750927042058L65.8125,63.754429497503125L70.87499999999999,56.32597478019388L75.9375,50.21988198498754L81,45.907684939802465L86.0625,43.13633876555334L91.125,40.47937196876062L96.1875,34.862687059146026L101.25,31.870239176805583L106.3125,29.22515179221013L111.375,27.26366325738229L116.43749999999999,27.63865238887675L121.5,23.941047005965146L126.5625,27.236945072847053L131.625,26.60776145309799L136.6875,25.162936994736267L141.74999999999997,22.001971486981635L146.8125,19.847030773249593L151.875,17.946156032285398L156.9375,16.94471182271978L162,14.869828155692396L167.0625,13.893222981738647L172.125,13.276011023746396L177.1875,12.974210948963321L182.25,13.834741954796563L187.3125,14.000737226444164L192.375,12.626361611797963L197.4375,11.500769754171863L202.5,11.37239156474619L207.5625,10.845406215985031L212.625,9.831115221111274L217.6875,9.417924054702127L222.75,9.27748883997341L227.8125,7.962432312003914L232.87499999999997,7.0917454524806605L237.9375,6.196498819278913L243,5.801487127428978L248.0625,5.160571390449989L253.125,4.630263790059988L258.1875,4.179600479351224" style="fill: none;" fill="none"></path></g></g></g></g><g opacity="0.2"><g><g><g><path stroke="rgb(51, 187, 238)" stroke-width="2px" d="M30.375,172.21988520026204L35.43749999999999,156.32654061913487L40.5,105.64271776378153L45.5625,109.71805943548678L50.625,69.42917338013649L55.6875,83.27515429258345L60.75,65.87876124680042L65.8125,42.79096095263958L70.87499999999999,38.53310389816761L75.9375,56.68197727203369L81,40.141125082969666L86.0625,60.7283723205328L91.125,61.77381357550621L96.1875,49.49246688187122L101.25,39.72367389500141L106.3125,43.10924193263054L111.375,28.424072697758675L116.43749999999999,31.676380768418312L121.5,31.656335726380348L126.5625,23.93925829231739L131.625,27.360366716980934L136.6875,24.588744029402733L141.74999999999997,20.82845239341259L146.8125,35.33677688241005L151.875,37.85691341757774L156.9375,26.66360369324684L162,37.65817737579346L167.0625,35.00326430797577L172.125,34.1123149394989L177.1875,22.88603639602661L182.25,31.957011356949806L187.3125,32.24852165579796L192.375,24.131004944443703L197.4375,25.277858287096024L202.5,22.10573038458824L207.5625,24.025043159723282L212.625,27.636183857917786L217.6875,22.41616478562355L222.75,20.66617986559868L227.8125,16.811729282140732L232.87499999999997,17.578122451901436L237.9375,18.619277760386467L243,21.136842727661133L248.0625,20.97476801276207L253.125,19.768438920378685L258.1875,19.768438920378685" style="fill: none;" fill="none"></path></g><g><path stroke="rgb(0, 119, 187)" stroke-width="2px" d="M35.43749999999999,188.2411487996578L40.5,175.8871388286352L45.5625,126.60791954398154L50.625,140.31945361196992L55.6875,122.4835202693939L60.75,88.13014259934424L65.8125,105.66882906854151L70.87499999999999,117.45847879350184L75.9375,100.02938067913055L81,103.26599559187888L86.0625,81.0530558824539L91.125,66.43375834822655L96.1875,70.75234396755695L101.25,77.39701165258883L106.3125,62.39619894325733L111.375,84.53337630629538L116.43749999999999,51.823494270443916L121.5,66.63849471509457L126.5625,62.46081782877445L131.625,65.22980301082134L136.6875,82.80416174232958L141.74999999999997,60.309008941054344L146.8125,65.46131005883217L151.875,55.327881932258606L156.9375,62.982252672314644L162,92.54545873403549L167.0625,61.02100355923176L172.125,49.88842239975929L177.1875,64.48457582294941L182.25,54.67265962064266L187.3125,47.37685775756836L192.375,53.52389408648014L197.4375,58.97126613557339L202.5,54.457505106925964L207.5625,59.643895983695984L212.625,56.90801149606705L217.6875,48.651630118489265L222.75,49.95436003804207L227.8125,55.08160485327244L232.87499999999997,61.677940249443054L237.9375,52.34473130106926L243,55.87384557723999L248.0625,53.92242117226124L253.125,51.931763872504234L258.1875,51.931763872504234" style="fill: none;" fill="none"></path></g><g><path stroke="rgb(255, 112, 67)" stroke-width="2px" d="M30.375,200.73171561956403L35.43749999999999,96.58921627700329L40.5,89.48153449594975L45.5625,53.24161505699158L50.625,52.273848339915276L55.6875,59.0879757553339L60.75,43.274481654167175L65.8125,29.3615081012249L70.87499999999999,25.70177136361599L75.9375,23.632912024855614L81,26.282681956887245L86.0625,30.060051441192627L91.125,27.564839333295822L96.1875,6.8829715847969055L101.25,16.655720829963684L106.3125,15.545660689473152L111.375,16.973869934678078L116.43749999999999,29.6294786632061L121.5,4.112008273601532L126.5625,45.06205102801323L131.625,23.18057982623577L136.6875,17.245335191488266L141.74999999999997,4.591440841555595L146.8125,7.926368772983551L151.875,7.392471715807915L156.9375,11.367456302046776L162,3.2840293496847153L167.0625,8.427890449762344L172.125,9.815416172146797L177.1875,11.279363617300987L182.25,18.673874124884605L187.3125,14.935275971889496L192.375,4.881170824170113L197.4375,5.152306392788887L202.5,10.64781291782856L207.5625,7.869266778230667L212.625,4.100007623434067L217.6875,7.082235127687454L222.75,8.483344003558159L227.8125,0.5236160606145859L232.87499999999997,2.165265440940857L237.9375,1.12991264462471L243,3.5655171275138855L248.0625,1.5320663005113602L253.125,1.6275440007448196L258.1875,1.6275440007448196" style="fill: none;" fill="none"></path></g></g></g></g></g></g><g transform="translate(51, 177)" clip-path="url(#clip_1)"><clipPath id="clip_1"><rect width="278" height="23"></rect></clipPath><g><g><line x1="0" y1="0" x2="0" y2="5" style="visibility: inherit;" fill="rgb(0, 0, 0)" stroke="rgb(204, 204, 204)" stroke-width="1px"></line><line x1="25.3125" y1="0" x2="25.3125" y2="5" style="visibility: inherit;" fill="rgb(0, 0, 0)" stroke="rgb(204, 204, 204)" stroke-width="1px"></line><line x1="50.625" y1="0" x2="50.625" y2="5" style="visibility: inherit;" fill="rgb(0, 0, 0)" stroke="rgb(204, 204, 204)" stroke-width="1px"></line><line x1="75.9375" y1="0" x2="75.9375" y2="5" style="visibility: inherit;" fill="rgb(0, 0, 0)" stroke="rgb(204, 204, 204)" stroke-width="1px"></line><line x1="101.25" y1="0" x2="101.25" y2="5" style="visibility: inherit;" fill="rgb(0, 0, 0)" stroke="rgb(204, 204, 204)" stroke-width="1px"></line><line x1="126.5625" y1="0" x2="126.5625" y2="5" style="visibility: inherit;" fill="rgb(0, 0, 0)" stroke="rgb(204, 204, 204)" stroke-width="1px"></line><line x1="151.875" y1="0" x2="151.875" y2="5" style="visibility: inherit;" fill="rgb(0, 0, 0)" stroke="rgb(204, 204, 204)" stroke-width="1px"></line><line x1="177.1875" y1="0" x2="177.1875" y2="5" style="visibility: inherit;" fill="rgb(0, 0, 0)" stroke="rgb(204, 204, 204)" stroke-width="1px"></line><line x1="202.5" y1="0" x2="202.5" y2="5" style="visibility: inherit;" fill="rgb(0, 0, 0)" stroke="rgb(204, 204, 204)" stroke-width="1px"></line><line x1="227.8125" y1="0" x2="227.8125" y2="5" style="visibility: inherit;" fill="rgb(0, 0, 0)" stroke="rgb(204, 204, 204)" stroke-width="1px"></line><line x1="253.125" y1="0" x2="253.125" y2="5" style="visibility: inherit;" fill="rgb(0, 0, 0)" stroke="rgb(204, 204, 204)" stroke-width="1px"></line><line x1="278.4375" y1="0" x2="278.4375" y2="5" style="visibility: inherit;" fill="rgb(0, 0, 0)" stroke="rgb(204, 204, 204)" stroke-width="1px"></line></g><g transform="translate(0, 8)"><text x="0" y="0" dx="0em" dy="0.95em" style="text-anchor: middle; visibility: hidden; font-family: Roboto, sans-serif; font-size: 12px; font-weight: 200;" fill="rgb(33, 33, 33)" stroke="none" stroke-width="1px">-5</text><text x="25.3125" y="0" dx="0em" dy="0.95em" style="text-anchor: middle; visibility: inherit; font-family: Roboto, sans-serif; font-size: 12px; font-weight: 200;" fill="rgb(33, 33, 33)" stroke="none" stroke-width="1px">0</text><text x="50.625" y="0" dx="0em" dy="0.95em" style="text-anchor: middle; visibility: inherit; font-family: Roboto, sans-serif; font-size: 12px; font-weight: 200;" fill="rgb(33, 33, 33)" stroke="none" stroke-width="1px">5</text><text x="75.9375" y="0" dx="0em" dy="0.95em" style="text-anchor: middle; visibility: inherit; font-family: Roboto, sans-serif; font-size: 12px; font-weight: 200;" fill="rgb(33, 33, 33)" stroke="none" stroke-width="1px">10</text><text x="101.25" y="0" dx="0em" dy="0.95em" style="text-anchor: middle; visibility: inherit; font-family: Roboto, sans-serif; font-size: 12px; font-weight: 200;" fill="rgb(33, 33, 33)" stroke="none" stroke-width="1px">15</text><text x="126.5625" y="0" dx="0em" dy="0.95em" style="text-anchor: middle; visibility: inherit; font-family: Roboto, sans-serif; font-size: 12px; font-weight: 200;" fill="rgb(33, 33, 33)" stroke="none" stroke-width="1px">20</text><text x="151.875" y="0" dx="0em" dy="0.95em" style="text-anchor: middle; visibility: inherit; font-family: Roboto, sans-serif; font-size: 12px; font-weight: 200;" fill="rgb(33, 33, 33)" stroke="none" stroke-width="1px">25</text><text x="177.1875" y="0" dx="0em" dy="0.95em" style="text-anchor: middle; visibility: inherit; font-family: Roboto, sans-serif; font-size: 12px; font-weight: 200;" fill="rgb(33, 33, 33)" stroke="none" stroke-width="1px">30</text><text x="202.5" y="0" dx="0em" dy="0.95em" style="text-anchor: middle; visibility: inherit; font-family: Roboto, sans-serif; font-size: 12px; font-weight: 200;" fill="rgb(33, 33, 33)" stroke="none" stroke-width="1px">35</text><text x="227.8125" y="0" dx="0em" dy="0.95em" style="text-anchor: middle; visibility: inherit; font-family: Roboto, sans-serif; font-size: 12px; font-weight: 200;" fill="rgb(33, 33, 33)" stroke="none" stroke-width="1px">40</text><text x="253.125" y="0" dx="0em" dy="0.95em" style="text-anchor: middle; visibility: inherit; font-family: Roboto, sans-serif; font-size: 12px; font-weight: 200;" fill="rgb(33, 33, 33)" stroke="none" stroke-width="1px">45</text><text x="278.4375" y="0" dx="0em" dy="0.95em" style="text-anchor: middle; visibility: hidden; font-family: Roboto, sans-serif; font-size: 12px; font-weight: 200;" fill="rgb(33, 33, 33)" stroke="none" stroke-width="1px">50</text></g><line x1="0" y1="0" x2="278.4375" y2="0" fill="rgb(0, 0, 0)" stroke="rgb(204, 204, 204)" stroke-width="1px"></line></g></g></g></g></svg>