<svg viewBox="0 0 330 200" xmlns="http://www.w3.org/2000/svg"><g><g><g><g><g><line x1="51.5625" y1="177" x2="46.5625" y2="177" style="visibility: inherit;" fill="rgb(0, 0, 0)" stroke="rgb(204, 204, 204)" stroke-width="1px"></line><line x1="51.5625" y1="159.29999999999998" x2="46.5625" y2="159.29999999999998" style="visibility: inherit;" fill="rgb(0, 0, 0)" stroke="rgb(204, 204, 204)" stroke-width="1px"></line><line x1="51.5625" y1="141.6" x2="46.5625" y2="141.6" style="visibility: inherit;" fill="rgb(0, 0, 0)" stroke="rgb(204, 204, 204)" stroke-width="1px"></line><line x1="51.5625" y1="123.89999999999999" x2="46.5625" y2="123.89999999999999" style="visibility: inherit;" fill="rgb(0, 0, 0)" stroke="rgb(204, 204, 204)" stroke-width="1px"></line><line x1="51.5625" y1="106.20000000000002" x2="46.5625" y2="106.20000000000002" style="visibility: inherit;" fill="rgb(0, 0, 0)" stroke="rgb(204, 204, 204)" stroke-width="1px"></line><line x1="51.5625" y1="88.5" x2="46.5625" y2="88.5" style="visibility: inherit;" fill="rgb(0, 0, 0)" stroke="rgb(204, 204, 204)" stroke-width="1px"></line><line x1="51.5625" y1="70.79999999999998" x2="46.5625" y2="70.79999999999998" style="visibility: inherit;" fill="rgb(0, 0, 0)" stroke="rgb(204, 204, 204)" stroke-width="1px"></line><line x1="51.5625" y1="53.10000000000001" x2="46.5625" y2="53.10000000000001" style="visibility: inherit;" fill="rgb(0, 0, 0)" stroke="rgb(204, 204, 204)" stroke-width="1px"></line><line x1="51.5625" y1="35.39999999999999" x2="46.5625" y2="35.39999999999999" style="visibility: inherit;" fill="rgb(0, 0, 0)" stroke="rgb(204, 204, 204)" stroke-width="1px"></line><line x1="51.5625" y1="17.700000000000017" x2="46.5625" y2="17.700000000000017" style="visibility: inherit;" fill="rgb(0, 0, 0)" stroke="rgb(204, 204, 204)" stroke-width="1px"></line><line x1="51.5625" y1="0" x2="46.5625" y2="0" style="visibility: inherit;" fill="rgb(0, 0, 0)" stroke="rgb(204, 204, 204)" stroke-width="1px"></line></g><g transform="translate(41.5625, 0)"><text x="0" y="177" dx="0em" dy="0.3em" style="text-anchor: end; visibility: hidden; font-family: Roboto, sans-serif; font-size: 12px; font-weight: 200;" fill="rgb(33, 33, 33)" stroke="none" stroke-width="1px">0.15</text><text x="0" y="159.29999999999998" dx="0em" dy="0.3em" style="text-anchor: end; visibility: inherit; font-family: Roboto, sans-serif; font-size: 12px; font-weight: 200;" fill="rgb(33, 33, 33)" stroke="none" stroke-width="1px">0.2</text><text x="0" y="141.6" dx="0em" dy="0.3em" style="text-anchor: end; visibility: hidden; font-family: Roboto, sans-serif; font-size: 12px; font-weight: 200;" fill="rgb(33, 33, 33)" stroke="none" stroke-width="1px">0.25</text><text x="0" y="123.89999999999999" dx="0em" dy="0.3em" style="text-anchor: end; visibility: inherit; font-family: Roboto, sans-serif; font-size: 12px; font-weight: 200;" fill="rgb(33, 33, 33)" stroke="none" stroke-width="1px">0.3</text><text x="0" y="106.20000000000002" dx="0em" dy="0.3em" style="text-anchor: end; visibility: hidden; font-family: Roboto, sans-serif; font-size: 12px; font-weight: 200;" fill="rgb(33, 33, 33)" stroke="none" stroke-width="1px">0.35</text><text x="0" y="88.5" dx="0em" dy="0.3em" style="text-anchor: end; visibility: inherit; font-family: Roboto, sans-serif; font-size: 12px; font-weight: 200;" fill="rgb(33, 33, 33)" stroke="none" stroke-width="1px">0.4</text><text x="0" y="70.79999999999998" dx="0em" dy="0.3em" style="text-anchor: end; visibility: hidden; font-family: Roboto, sans-serif; font-size: 12px; font-weight: 200;" fill="rgb(33, 33, 33)" stroke="none" stroke-width="1px">0.45</text><text x="0" y="53.10000000000001" dx="0em" dy="0.3em" style="text-anchor: end; visibility: inherit; font-family: Roboto, sans-serif; font-size: 12px; font-weight: 200;" fill="rgb(33, 33, 33)" stroke="none" stroke-width="1px">0.5</text><text x="0" y="35.39999999999999" dx="0em" dy="0.3em" style="text-anchor: end; visibility: hidden; font-family: Roboto, sans-serif; font-size: 12px; font-weight: 200;" fill="rgb(33, 33, 33)" stroke="none" stroke-width="1px">0.55</text><text x="0" y="17.700000000000017" dx="0em" dy="0.3em" style="text-anchor: end; visibility: inherit; font-family: Roboto, sans-serif; font-size: 12px; font-weight: 200;" fill="rgb(33, 33, 33)" stroke="none" stroke-width="1px">0.6</text><text x="0" y="0" dx="0em" dy="0.3em" style="text-anchor: end; visibility: hidden; font-family: Roboto, sans-serif; font-size: 12px; font-weight: 200;" fill="rgb(33, 33, 33)" stroke="none" stroke-width="1px">0.65</text></g><line x1="51.5625" y1="0" x2="51.5625" y2="177" fill="rgb(0, 0, 0)" stroke="rgb(204, 204, 204)" stroke-width="1px"></line></g></g><g transform="translate(51, 0)" clip-path="url(#clip_0)"><clipPath id="clip_0"><rect width="278" height="177"></rect></clipPath><g><g><g><line x1="0" y1="0" x2="0" y2="177" fill="rgb(0, 0, 0)" stroke="rgb(66, 66, 66)" stroke-width="1px" opacity="0.25"></line><line x1="25.3125" y1="0" x2="25.3125" y2="177" fill="rgb(0, 0, 0)" stroke="rgb(66, 66, 66)" stroke-width="1px" opacity="0.25"></line><line x1="50.625" y1="0" x2="50.625" y2="177" fill="rgb(0, 0, 0)" stroke="rgb(66, 66, 66)" stroke-width="1px" opacity="0.25"></line><line x1="75.9375" y1="0" x2="75.9375" y2="177" fill="rgb(0, 0, 0)" stroke="rgb(66, 66, 66)" stroke-width="1px" opacity="0.25"></line><line x1="101.25" y1="0" x2="101.25" y2="177" fill="rgb(0, 0, 0)" stroke="rgb(66, 66, 66)" stroke-width="1px" opacity="0.25"></line><line x1="126.5625" y1="0" x2="126.5625" y2="177" fill="rgb(0, 0, 0)" stroke="rgb(66, 66, 66)" stroke-width="1px" opacity="0.25"></line><line x1="151.875" y1="0" x2="151.875" y2="177" fill="rgb(0, 0, 0)" stroke="rgb(66, 66, 66)" stroke-width="1px" opacity="0.25"></line><line x1="177.1875" y1="0" x2="177.1875" y2="177" fill="rgb(0, 0, 0)" stroke="rgb(66, 66, 66)" stroke-width="1px" opacity="0.25"></line><line x1="202.5" y1="0" x2="202.5" y2="177" fill="rgb(0, 0, 0)" stroke="rgb(66, 66, 66)" stroke-width="1px" opacity="0.25"></line><line x1="227.8125" y1="0" x2="227.8125" y2="177" fill="rgb(0, 0, 0)" stroke="rgb(66, 66, 66)" stroke-width="1px" opacity="0.25"></line><line x1="253.125" y1="0" x2="253.125" y2="177" fill="rgb(0, 0, 0)" stroke="rgb(66, 66, 66)" stroke-width="1px" opacity="0.25"></line><line x1="278.4375" y1="0" x2="278.4375" y2="177" fill="rgb(0, 0, 0)" stroke="rgb(66, 66, 66)" stroke-width="1px" opacity="0.25"></line></g><g><line x1="0" y1="177" x2="278.4375" y2="177" fill="rgb(0, 0, 0)" stroke="rgb(66, 66, 66)" stroke-width="1px" opacity="0.25"></line><line x1="0" y1="159.29999999999998" x2="278.4375" y2="159.29999999999998" fill="rgb(0, 0, 0)" stroke="rgb(66, 66, 66)" stroke-width="1px" opacity="0.25"></line><line x1="0" y1="141.6" x2="278.4375" y2="141.6" fill="rgb(0, 0, 0)" stroke="rgb(66, 66, 66)" stroke-width="1px" opacity="0.25"></line><line x1="0" y1="123.89999999999999" x2="278.4375" y2="123.89999999999999" fill="rgb(0, 0, 0)" stroke="rgb(66, 66, 66)" stroke-width="1px" opacity="0.25"></line><line x1="0" y1="106.20000000000002" x2="278.4375" y2="106.20000000000002" fill="rgb(0, 0, 0)" stroke="rgb(66, 66, 66)" stroke-width="1px" opacity="0.25"></line><line x1="0" y1="88.5" x2="278.4375" y2="88.5" fill="rgb(0, 0, 0)" stroke="rgb(66, 66, 66)" stroke-width="1px" opacity="0.25"></line><line x1="0" y1="70.79999999999998" x2="278.4375" y2="70.79999999999998" fill="rgb(0, 0, 0)" stroke="rgb(66, 66, 66)" stroke-width="1px" opacity="0.25"></line><line x1="0" y1="53.10000000000001" x2="278.4375" y2="53.10000000000001" fill="rgb(0, 0, 0)" stroke="rgb(66, 66, 66)" stroke-width="1px" opacity="0.25"></line><line x1="0" y1="35.39999999999999" x2="278.4375" y2="35.39999999999999" fill="rgb(0, 0, 0)" stroke="rgb(66, 66, 66)" stroke-width="1px" opacity="0.25"></line><line x1="0" y1="17.700000000000017" x2="278.4375" y2="17.700000000000017" fill="rgb(0, 0, 0)" stroke="rgb(66, 66, 66)" stroke-width="1px" opacity="0.25"></line><line x1="0" y1="0" x2="278.4375" y2="0" fill="rgb(0, 0, 0)" stroke="rgb(66, 66, 66)" stroke-width="1px" opacity="0.25"></line></g></g></g><g><g><line x1="0" y1="230.1" x2="278.4375" y2="230.1" fill="rgb(0, 0, 0)" stroke="rgb(153, 153, 153)" stroke-width="1.5px"></line></g></g><g><g><line x1="25.3125" y1="0" x2="25.3125" y2="177" fill="rgb(0, 0, 0)" stroke="rgb(153, 153, 153)" stroke-width="1.5px"></line></g></g><g><g><g><g><g><path stroke="rgb(51, 187, 238)" stroke-width="2px" d="M30.375,155.43115285634994L35.43749999999999,153.85394450812726L40.5,147.82492616569334L45.5625,138.87245157595612L50.625,124.38427160926756L55.6875,106.75628622813737L60.75,93.35469309860243L65.8125,79.09827774621174L70.87499999999999,69.55488736095809L75.9375,61.77290448211427L81,56.13959087416789L86.0625,51.23695271926448L91.125,45.59032343442699L96.1875,43.135413555647574L101.25,39.5275053317317L106.3125,37.920151342080054L111.375,34.4471937438239L116.43749999999999,32.21606366280926L121.5,30.743749257223342L126.5625,28.602717440559104L131.625,27.49308735217246L136.6875,25.699912724654958L141.74999999999997,23.362843717928207L146.8125,22.671874771393224L151.875,21.714221572268197L156.9375,20.69857277468714L162,20.91767546700452L167.0625,20.579180849335064L172.125,20.676328740567577L177.1875,20.175208403023316L182.25,19.24602635408346L187.3125,19.518415833576345L192.375,18.7914599371894L197.4375,18.61254711102943L202.5,18.15952828356894L207.5625,17.495250445534893L212.625,18.006365445950046L217.6875,17.531649479431923L222.75,16.901754710541898L227.8125,16.84479413062431L232.87499999999997,16.09552406170228L237.9375,15.783124675024682L243,15.504304380757977L248.0625,15.152810435071524L253.125,14.822157738392029L258.1875,14.54116414359758" style="fill: none;" fill="none"></path></g><g><path stroke="rgb(0, 119, 187)" stroke-width="2px" d="M30.375,186.3653290182352L35.43749999999999,171.40316930888474L40.5,166.82008371817997L45.5625,163.15916852018307L50.625,160.2746900238934L55.6875,153.8711243873035L60.75,148.57171444799675L65.8125,143.36255849583088L70.87499999999999,136.5266466545591L75.9375,128.09339359011548L81,118.13133497409272L86.0625,108.608934103793L91.125,99.56991369120817L96.1875,92.3108415213333L101.25,85.6239513776559L106.3125,79.05044876578738L111.375,74.73370666097313L116.43749999999999,68.567701130231L121.5,65.19946525187792L126.5625,60.93923955690478L131.625,57.42548398257625L136.6875,55.53363037785415L141.74999999999997,53.39844126839749L146.8125,51.74835073595948L151.875,50.141907575300024L156.9375,48.26379346028592L162,49.29886835143696L167.0625,47.76952650509864L172.125,46.369202886974925L177.1875,45.190690791412386L182.25,44.25334897102376L187.3125,42.02593656379147L192.375,41.616284949622866L197.4375,41.00659209402281L202.5,40.25830096110484L207.5625,40.79124902782632L212.625,41.146392508151514L217.6875,40.14121527820528L222.75,39.41656315315516L227.8125,39.47149763887804L232.87499999999997,38.85245548462911L237.9375,37.93034482268681L243,37.91696822798668L248.0625,37.3847298902771L253.125,36.83300837579852L258.1875,36.3641472014133" style="fill: none;" fill="none"></path></g><g><path stroke="rgb(255, 112, 67)" stroke-width="2px" d="M30.375,155.21326852440833L35.43749999999999,151.7846852665012L40.5,142.4523059446506L45.5625,115.36315943649107L50.625,96.71158839525621L55.6875,79.49986736997364L60.75,66.1535537616621L65.8125,54.20791041588664L70.87499999999999,48.826751200776336L75.9375,44.731448318071564L81,41.18080832977362L86.0625,37.8314329574574L91.125,33.94837020864464L96.1875,30.171356945855266L101.25,28.36309433707503L106.3125,25.04081891602498L111.375,24.51519604004887L116.43749999999999,24.9593561539405L121.5,22.51723528087712L126.5625,22.50905010297575L131.625,21.85620851146023L136.6875,21.03538204974759L141.74999999999997,19.085738555881377L146.8125,18.740173170561686L151.875,19.167433290114122L156.9375,18.748362973320752L162,18.10021938395721L167.0625,17.43001156027959L172.125,16.54979647953252L177.1875,16.166885465981576L182.25,17.412150568236115L187.3125,16.854254557325643L192.375,15.613524995044939L197.4375,15.387359394626907L202.5,15.280362321692586L207.5625,14.434120711386312L212.625,13.491466855358746L217.6875,13.774306234742408L222.75,14.183365857345402L227.8125,13.583402759845209L232.87499999999997,12.986804966142751L237.9375,12.259498721528477L243,11.964351364267312L248.0625,11.587118178545905L253.125,11.317181663044785L258.1875,11.087785584867692" style="fill: none;" fill="none"></path></g></g></g></g><g opacity="0.2"><g><g><g><path stroke="rgb(51, 187, 238)" stroke-width="2px" d="M30.375,155.43115285634994L35.43749999999999,152.51331741213798L40.5,138.34429482221603L45.5625,119.29674682617188L50.625,85.14113459587098L55.6875,51.18694338798524L60.75,46.053956723213204L65.8125,24.210178112983712L70.87499999999999,30.211748099327096L75.9375,27.88882312774659L81,30.502126908302316L86.0625,28.10440227985383L91.125,18.144147491455087L96.1875,30.906192755699166L101.25,21.183798766136178L106.3125,29.607463932037362L111.375,16.228368973732003L116.43749999999999,20.370940661430367L121.5,22.848212456703195L126.5625,17.023439741134652L131.625,21.448899722099313L136.6875,15.873360729217538L141.74999999999997,10.490317440032968L146.8125,18.84958527088166L151.875,16.397317028045663L156.9375,15.042208886146554L162,22.14110777378083L167.0625,18.68487832546235L172.125,21.22101924419404L177.1875,17.361019349098214L182.25,14.020840144157418L187.3125,21.051944589614877L192.375,14.694754457473763L197.4375,17.603458857536324L202.5,15.602647161483773L207.5625,13.743754363060006L212.625,20.89434835910798L217.6875,14.848172879219064L222.75,13.339772915840157L227.8125,16.52258799076081L232.87499999999997,11.856038904190072L237.9375,14.015122032165536L243,13.926037645339974L248.0625,13.162849044799813L253.125,12.949928498268136L258.1875,12.949928498268136" style="fill: none;" fill="none"></path></g><g><path stroke="rgb(0, 119, 187)" stroke-width="2px" d="M30.375,186.3653290182352L35.43749999999999,158.6853335559368L40.5,159.61318162679672L45.5625,155.15411982536315L50.625,152.46170142889022L55.6875,133.68493030071258L60.75,129.86752084493637L65.8125,123.30697903633119L70.87499999999999,108.34523305892945L75.9375,91.37357071638108L81,72.79355750083924L86.0625,63.67854938507081L91.125,55.63457951545716L96.1875,56.1495155453682L101.25,51.62576100826264L106.3125,45.054532027244576L111.375,52.0884638786316L116.43749999999999,35.83223018646241L121.5,47.13672659397126L126.5625,37.898789620399484L131.625,38.28595433235169L136.6875,45.16632006168366L141.74999999999997,41.63786516189576L146.8125,42.620409822464L151.875,41.22291169166566L156.9375,37.804177021980294L162,55.078551149368295L167.0625,39.2109380722046L172.125,38.51784381866456L177.1875,38.57240853309632L182.25,38.98227689266206L187.3125,29.485801076889047L192.375,39.30772397518159L197.4375,37.567856526374825L202.5,36.0348750114441L207.5625,43.80106279850007L212.625,43.153080439567574L217.6875,34.459144806861886L222.75,35.31873950958253L227.8125,39.78224287033082L232.87499999999997,35.3498198747635L237.9375,32.71172354221345L243,37.8412497997284L248.0625,34.37149522304536L253.125,33.70903823375703L258.1875,33.70903823375703" style="fill: none;" fill="none"></path></g><g><path stroke="rgb(255, 112, 67)" stroke-width="2px" d="M30.375,155.21326852440833L35.43749999999999,148.87038949728012L40.5,127.7771394610405L45.5625,56.12935445308686L50.625,46.191360211372384L55.6875,25.242729878425607L60.75,19.04792568683625L65.8125,8.216428971290597L70.87499999999999,26.642633414268502L75.9375,26.899800753593453L81,25.02168581485749L86.0625,22.02777943611146L91.125,15.074238753318795L96.1875,11.356031155586251L101.25,19.16933534145356L106.3125,7.859141921997078L111.375,21.75782546997071L116.43749999999999,27.317412829399117L121.5,9.420946097373971L126.5625,22.46478245258332L131.625,18.300161218643197L136.6875,16.53727362155915L141.74999999999997,8.347143745422372L146.8125,16.828580832481393L151.875,21.53958771228791L156.9375,16.41447136402131L162,14.481095409393319L167.0625,13.679357028007516L172.125,11.614591097831735L177.1875,14.016535735130319L182.25,24.414806342124947L187.3125,13.713349199295052L192.375,8.62148652076722L197.4375,14.111760234832772L202.5,14.67646071910859L207.5625,9.654987788200387L212.625,8.16513476371766L217.6875,15.373141980171212L222.75,16.49655053615571L227.8125,10.189620709419259L232.87499999999997,9.611162996292123L237.9375,8.143359518051156L243,10.293665027618417L248.0625,9.451435661315926L253.125,9.788740968704232L258.1875,9.788740968704232" style="fill: none;" fill="none"></path></g></g></g></g></g></g><g transform="translate(51, 177)" clip-path="url(#clip_1)"><clipPath id="clip_1"><rect width="278" height="23"></rect></clipPath><g><g><line x1="0" y1="0" x2="0" y2="5" style="visibility: inherit;" fill="rgb(0, 0, 0)" stroke="rgb(204, 204, 204)" stroke-width="1px"></line><line x1="25.3125" y1="0" x2="25.3125" y2="5" style="visibility: inherit;" fill="rgb(0, 0, 0)" stroke="rgb(204, 204, 204)" stroke-width="1px"></line><line x1="50.625" y1="0" x2="50.625" y2="5" style="visibility: inherit;" fill="rgb(0, 0, 0)" stroke="rgb(204, 204, 204)" stroke-width="1px"></line><line x1="75.9375" y1="0" x2="75.9375" y2="5" style="visibility: inherit;" fill="rgb(0, 0, 0)" stroke="rgb(204, 204, 204)" stroke-width="1px"></line><line x1="101.25" y1="0" x2="101.25" y2="5" style="visibility: inherit;" fill="rgb(0, 0, 0)" stroke="rgb(204, 204, 204)" stroke-width="1px"></line><line x1="126.5625" y1="0" x2="126.5625" y2="5" style="visibility: inherit;" fill="rgb(0, 0, 0)" stroke="rgb(204, 204, 204)" stroke-width="1px"></line><line x1="151.875" y1="0" x2="151.875" y2="5" style="visibility: inherit;" fill="rgb(0, 0, 0)" stroke="rgb(204, 204, 204)" stroke-width="1px"></line><line x1="177.1875" y1="0" x2="177.1875" y2="5" style="visibility: inherit;" fill="rgb(0, 0, 0)" stroke="rgb(204, 204, 204)" stroke-width="1px"></line><line x1="202.5" y1="0" x2="202.5" y2="5" style="visibility: inherit;" fill="rgb(0, 0, 0)" stroke="rgb(204, 204, 204)" stroke-width="1px"></line><line x1="227.8125" y1="0" x2="227.8125" y2="5" style="visibility: inherit;" fill="rgb(0, 0, 0)" stroke="rgb(204, 204, 204)" stroke-width="1px"></line><line x1="253.125" y1="0" x2="253.125" y2="5" style="visibility: inherit;" fill="rgb(0, 0, 0)" stroke="rgb(204, 204, 204)" stroke-width="1px"></line><line x1="278.4375" y1="0" x2="278.4375" y2="5" style="visibility: inherit;" fill="rgb(0, 0, 0)" stroke="rgb(204, 204, 204)" stroke-width="1px"></line></g><g transform="translate(0, 8)"><text x="0" y="0" dx="0em" dy="0.95em" style="text-anchor: middle; visibility: hidden; font-family: Roboto, sans-serif; font-size: 12px; font-weight: 200;" fill="rgb(33, 33, 33)" stroke="none" stroke-width="1px">-5</text><text x="25.3125" y="0" dx="0em" dy="0.95em" style="text-anchor: middle; visibility: inherit; font-family: Roboto, sans-serif; font-size: 12px; font-weight: 200;" fill="rgb(33, 33, 33)" stroke="none" stroke-width="1px">0</text><text x="50.625" y="0" dx="0em" dy="0.95em" style="text-anchor: middle; visibility: inherit; font-family: Roboto, sans-serif; font-size: 12px; font-weight: 200;" fill="rgb(33, 33, 33)" stroke="none" stroke-width="1px">5</text><text x="75.9375" y="0" dx="0em" dy="0.95em" style="text-anchor: middle; visibility: inherit; font-family: Roboto, sans-serif; font-size: 12px; font-weight: 200;" fill="rgb(33, 33, 33)" stroke="none" stroke-width="1px">10</text><text x="101.25" y="0" dx="0em" dy="0.95em" style="text-anchor: middle; visibility: inherit; font-family: Roboto, sans-serif; font-size: 12px; font-weight: 200;" fill="rgb(33, 33, 33)" stroke="none" stroke-width="1px">15</text><text x="126.5625" y="0" dx="0em" dy="0.95em" style="text-anchor: middle; visibility: inherit; font-family: Roboto, sans-serif; font-size: 12px; font-weight: 200;" fill="rgb(33, 33, 33)" stroke="none" stroke-width="1px">20</text><text x="151.875" y="0" dx="0em" dy="0.95em" style="text-anchor: middle; visibility: inherit; font-family: Roboto, sans-serif; font-size: 12px; font-weight: 200;" fill="rgb(33, 33, 33)" stroke="none" stroke-width="1px">25</text><text x="177.1875" y="0" dx="0em" dy="0.95em" style="text-anchor: middle; visibility: inherit; font-family: Roboto, sans-serif; font-size: 12px; font-weight: 200;" fill="rgb(33, 33, 33)" stroke="none" stroke-width="1px">30</text><text x="202.5" y="0" dx="0em" dy="0.95em" style="text-anchor: middle; visibility: inherit; font-family: Roboto, sans-serif; font-size: 12px; font-weight: 200;" fill="rgb(33, 33, 33)" stroke="none" stroke-width="1px">35</text><text x="227.8125" y="0" dx="0em" dy="0.95em" style="text-anchor: middle; visibility: inherit; font-family: Roboto, sans-serif; font-size: 12px; font-weight: 200;" fill="rgb(33, 33, 33)" stroke="none" stroke-width="1px">40</text><text x="253.125" y="0" dx="0em" dy="0.95em" style="text-anchor: middle; visibility: inherit; font-family: Roboto, sans-serif; font-size: 12px; font-weight: 200;" fill="rgb(33, 33, 33)" stroke="none" stroke-width="1px">45</text><text x="278.4375" y="0" dx="0em" dy="0.95em" style="text-anchor: middle; visibility: hidden; font-family: Roboto, sans-serif; font-size: 12px; font-weight: 200;" fill="rgb(33, 33, 33)" stroke="none" stroke-width="1px">50</text></g><line x1="0" y1="0" x2="278.4375" y2="0" fill="rgb(0, 0, 0)" stroke="rgb(204, 204, 204)" stroke-width="1px"></line></g></g></g></g></svg>