<svg viewBox="0 0 330 200" xmlns="http://www.w3.org/2000/svg"><g><g><g><g><g><line x1="51.5625" y1="177" x2="46.5625" y2="177" style="visibility: inherit;" fill="rgb(0, 0, 0)" stroke="rgb(204, 204, 204)" stroke-width="1px"></line><line x1="51.5625" y1="160.90909090909093" x2="46.5625" y2="160.90909090909093" style="visibility: inherit;" fill="rgb(0, 0, 0)" stroke="rgb(204, 204, 204)" stroke-width="1px"></line><line x1="51.5625" y1="144.8181818181818" x2="46.5625" y2="144.8181818181818" style="visibility: inherit;" fill="rgb(0, 0, 0)" stroke="rgb(204, 204, 204)" stroke-width="1px"></line><line x1="51.5625" y1="128.72727272727272" x2="46.5625" y2="128.72727272727272" style="visibility: inherit;" fill="rgb(0, 0, 0)" stroke="rgb(204, 204, 204)" stroke-width="1px"></line><line x1="51.5625" y1="112.63636363636365" x2="46.5625" y2="112.63636363636365" style="visibility: inherit;" fill="rgb(0, 0, 0)" stroke="rgb(204, 204, 204)" stroke-width="1px"></line><line x1="51.5625" y1="96.54545454545456" x2="46.5625" y2="96.54545454545456" style="visibility: inherit;" fill="rgb(0, 0, 0)" stroke="rgb(204, 204, 204)" stroke-width="1px"></line><line x1="51.5625" y1="80.45454545454544" x2="46.5625" y2="80.45454545454544" style="visibility: inherit;" fill="rgb(0, 0, 0)" stroke="rgb(204, 204, 204)" stroke-width="1px"></line><line x1="51.5625" y1="64.36363636363635" x2="46.5625" y2="64.36363636363635" style="visibility: inherit;" fill="rgb(0, 0, 0)" stroke="rgb(204, 204, 204)" stroke-width="1px"></line><line x1="51.5625" y1="48.27272727272723" x2="46.5625" y2="48.27272727272723" style="visibility: inherit;" fill="rgb(0, 0, 0)" stroke="rgb(204, 204, 204)" stroke-width="1px"></line><line x1="51.5625" y1="32.181818181818215" x2="46.5625" y2="32.181818181818215" style="visibility: inherit;" fill="rgb(0, 0, 0)" stroke="rgb(204, 204, 204)" stroke-width="1px"></line><line x1="51.5625" y1="16.090909090909115" x2="46.5625" y2="16.090909090909115" style="visibility: inherit;" fill="rgb(0, 0, 0)" stroke="rgb(204, 204, 204)" stroke-width="1px"></line><line x1="51.5625" y1="0" x2="46.5625" y2="0" style="visibility: inherit;" fill="rgb(0, 0, 0)" stroke="rgb(204, 204, 204)" stroke-width="1px"></line></g><g transform="translate(41.5625, 0)"><text x="0" y="177" dx="0em" dy="0.3em" style="text-anchor: end; visibility: hidden; font-family: Roboto, sans-serif; font-size: 12px; font-weight: 200;" fill="rgb(33, 33, 33)" stroke="none" stroke-width="1px">0.4</text><text x="0" y="160.90909090909093" dx="0em" dy="0.3em" style="text-anchor: end; visibility: inherit; font-family: Roboto, sans-serif; font-size: 12px; font-weight: 200;" fill="rgb(33, 33, 33)" stroke="none" stroke-width="1px">0.42</text><text x="0" y="144.8181818181818" dx="0em" dy="0.3em" style="text-anchor: end; visibility: hidden; font-family: Roboto, sans-serif; font-size: 12px; font-weight: 200;" fill="rgb(33, 33, 33)" stroke="none" stroke-width="1px">0.44</text><text x="0" y="128.72727272727272" dx="0em" dy="0.3em" style="text-anchor: end; visibility: inherit; font-family: Roboto, sans-serif; font-size: 12px; font-weight: 200;" fill="rgb(33, 33, 33)" stroke="none" stroke-width="1px">0.46</text><text x="0" y="112.63636363636365" dx="0em" dy="0.3em" style="text-anchor: end; visibility: hidden; font-family: Roboto, sans-serif; font-size: 12px; font-weight: 200;" fill="rgb(33, 33, 33)" stroke="none" stroke-width="1px">0.48</text><text x="0" y="96.54545454545456" dx="0em" dy="0.3em" style="text-anchor: end; visibility: inherit; font-family: Roboto, sans-serif; font-size: 12px; font-weight: 200;" fill="rgb(33, 33, 33)" stroke="none" stroke-width="1px">0.5</text><text x="0" y="80.45454545454544" dx="0em" dy="0.3em" style="text-anchor: end; visibility: hidden; font-family: Roboto, sans-serif; font-size: 12px; font-weight: 200;" fill="rgb(33, 33, 33)" stroke="none" stroke-width="1px">0.52</text><text x="0" y="64.36363636363635" dx="0em" dy="0.3em" style="text-anchor: end; visibility: inherit; font-family: Roboto, sans-serif; font-size: 12px; font-weight: 200;" fill="rgb(33, 33, 33)" stroke="none" stroke-width="1px">0.54</text><text x="0" y="48.27272727272723" dx="0em" dy="0.3em" style="text-anchor: end; visibility: hidden; font-family: Roboto, sans-serif; font-size: 12px; font-weight: 200;" fill="rgb(33, 33, 33)" stroke="none" stroke-width="1px">0.56</text><text x="0" y="32.181818181818215" dx="0em" dy="0.3em" style="text-anchor: end; visibility: inherit; font-family: Roboto, sans-serif; font-size: 12px; font-weight: 200;" fill="rgb(33, 33, 33)" stroke="none" stroke-width="1px">0.58</text><text x="0" y="16.090909090909115" dx="0em" dy="0.3em" style="text-anchor: end; visibility: hidden; font-family: Roboto, sans-serif; font-size: 12px; font-weight: 200;" fill="rgb(33, 33, 33)" stroke="none" stroke-width="1px">0.6</text><text x="0" y="0" dx="0em" dy="0.3em" style="text-anchor: end; visibility: hidden; font-family: Roboto, sans-serif; font-size: 12px; font-weight: 200;" fill="rgb(33, 33, 33)" stroke="none" stroke-width="1px">0.62</text></g><line x1="51.5625" y1="0" x2="51.5625" y2="177" fill="rgb(0, 0, 0)" stroke="rgb(204, 204, 204)" stroke-width="1px"></line></g></g><g transform="translate(51, 0)" clip-path="url(#clip_0)"><clipPath id="clip_0"><rect width="278" height="177"></rect></clipPath><g><g><g><line x1="0" y1="0" x2="0" y2="177" fill="rgb(0, 0, 0)" stroke="rgb(66, 66, 66)" stroke-width="1px" opacity="0.25"></line><line x1="23.203125" y1="0" x2="23.203125" y2="177" fill="rgb(0, 0, 0)" stroke="rgb(66, 66, 66)" stroke-width="1px" opacity="0.25"></line><line x1="46.40625" y1="0" x2="46.40625" y2="177" fill="rgb(0, 0, 0)" stroke="rgb(66, 66, 66)" stroke-width="1px" opacity="0.25"></line><line x1="69.609375" y1="0" x2="69.609375" y2="177" fill="rgb(0, 0, 0)" stroke="rgb(66, 66, 66)" stroke-width="1px" opacity="0.25"></line><line x1="92.8125" y1="0" x2="92.8125" y2="177" fill="rgb(0, 0, 0)" stroke="rgb(66, 66, 66)" stroke-width="1px" opacity="0.25"></line><line x1="116.015625" y1="0" x2="116.015625" y2="177" fill="rgb(0, 0, 0)" stroke="rgb(66, 66, 66)" stroke-width="1px" opacity="0.25"></line><line x1="139.21875" y1="0" x2="139.21875" y2="177" fill="rgb(0, 0, 0)" stroke="rgb(66, 66, 66)" stroke-width="1px" opacity="0.25"></line><line x1="162.421875" y1="0" x2="162.421875" y2="177" fill="rgb(0, 0, 0)" stroke="rgb(66, 66, 66)" stroke-width="1px" opacity="0.25"></line><line x1="185.625" y1="0" x2="185.625" y2="177" fill="rgb(0, 0, 0)" stroke="rgb(66, 66, 66)" stroke-width="1px" opacity="0.25"></line><line x1="208.828125" y1="0" x2="208.828125" y2="177" fill="rgb(0, 0, 0)" stroke="rgb(66, 66, 66)" stroke-width="1px" opacity="0.25"></line><line x1="232.03125" y1="0" x2="232.03125" y2="177" fill="rgb(0, 0, 0)" stroke="rgb(66, 66, 66)" stroke-width="1px" opacity="0.25"></line><line x1="255.234375" y1="0" x2="255.234375" y2="177" fill="rgb(0, 0, 0)" stroke="rgb(66, 66, 66)" stroke-width="1px" opacity="0.25"></line><line x1="278.4375" y1="0" x2="278.4375" y2="177" fill="rgb(0, 0, 0)" stroke="rgb(66, 66, 66)" stroke-width="1px" opacity="0.25"></line></g><g><line x1="0" y1="177" x2="278.4375" y2="177" fill="rgb(0, 0, 0)" stroke="rgb(66, 66, 66)" stroke-width="1px" opacity="0.25"></line><line x1="0" y1="160.90909090909093" x2="278.4375" y2="160.90909090909093" fill="rgb(0, 0, 0)" stroke="rgb(66, 66, 66)" stroke-width="1px" opacity="0.25"></line><line x1="0" y1="144.8181818181818" x2="278.4375" y2="144.8181818181818" fill="rgb(0, 0, 0)" stroke="rgb(66, 66, 66)" stroke-width="1px" opacity="0.25"></line><line x1="0" y1="128.72727272727272" x2="278.4375" y2="128.72727272727272" fill="rgb(0, 0, 0)" stroke="rgb(66, 66, 66)" stroke-width="1px" opacity="0.25"></line><line x1="0" y1="112.63636363636365" x2="278.4375" y2="112.63636363636365" fill="rgb(0, 0, 0)" stroke="rgb(66, 66, 66)" stroke-width="1px" opacity="0.25"></line><line x1="0" y1="96.54545454545456" x2="278.4375" y2="96.54545454545456" fill="rgb(0, 0, 0)" stroke="rgb(66, 66, 66)" stroke-width="1px" opacity="0.25"></line><line x1="0" y1="80.45454545454544" x2="278.4375" y2="80.45454545454544" fill="rgb(0, 0, 0)" stroke="rgb(66, 66, 66)" stroke-width="1px" opacity="0.25"></line><line x1="0" y1="64.36363636363635" x2="278.4375" y2="64.36363636363635" fill="rgb(0, 0, 0)" stroke="rgb(66, 66, 66)" stroke-width="1px" opacity="0.25"></line><line x1="0" y1="48.27272727272723" x2="278.4375" y2="48.27272727272723" fill="rgb(0, 0, 0)" stroke="rgb(66, 66, 66)" stroke-width="1px" opacity="0.25"></line><line x1="0" y1="32.181818181818215" x2="278.4375" y2="32.181818181818215" fill="rgb(0, 0, 0)" stroke="rgb(66, 66, 66)" stroke-width="1px" opacity="0.25"></line><line x1="0" y1="16.090909090909115" x2="278.4375" y2="16.090909090909115" fill="rgb(0, 0, 0)" stroke="rgb(66, 66, 66)" stroke-width="1px" opacity="0.25"></line><line x1="0" y1="0" x2="278.4375" y2="0" fill="rgb(0, 0, 0)" stroke="rgb(66, 66, 66)" stroke-width="1px" opacity="0.25"></line></g></g></g><g><g><line x1="0" y1="498.81818181818187" x2="278.4375" y2="498.81818181818187" fill="rgb(0, 0, 0)" stroke="rgb(153, 153, 153)" stroke-width="1.5px"></line></g></g><g><g><line x1="23.203125" y1="0" x2="23.203125" y2="177" fill="rgb(0, 0, 0)" stroke="rgb(153, 153, 153)" stroke-width="1.5px"></line></g></g><g><g><g><g><g><path stroke="rgb(204, 51, 17)" stroke-width="2px" d="M25.523437499999996,170.4204978834499L27.84375,160.82892287112864L30.1640625,152.45255628719457L32.484375,151.84260155212368L34.8046875,156.844972018004L37.125,149.659032941273L39.4453125,143.41412162909555L41.765625,135.73806195595716L44.0859375,128.46775376456029L46.40625,122.20531866441361L48.7265625,110.49293280381275L51.04687499999999,105.00996200812557L53.36718750000001,89.8648008166027L55.6875,76.33724260171697L58.0078125,69.93343727289925L60.328125,59.25694896957834L62.6484375,55.494705587154805L64.96875,52.111475984196154L67.2890625,52.70071312674532L69.609375,51.51530196270152L71.92968750000001,47.389135451699396L74.25,44.76114255984245L76.5703125,43.09976688448617L78.890625,44.95617323148052L81.2109375,41.773215203780694L83.53125,42.64215834502533L85.8515625,39.31426633399265L88.171875,35.21617364784828L90.4921875,34.813213594732964L92.8125,33.18829036973139L95.1328125,33.15533455502955L97.453125,32.83642177372399L99.7734375,32.74602136463374L102.09374999999999,31.648420176831287L104.4140625,33.18557677551801L106.73437500000001,28.443673211385175L109.0546875,28.884748279838362L111.375,32.59836996447406L113.6953125,31.53845833848268L116.015625,30.454476131275523L118.3359375,32.00169513463655L120.65625,30.063729320089386L122.9765625,25.087778315113773L125.296875,29.033714686702766L127.6171875,30.50170171584024" style="fill: none;" fill="none"></path></g><g><path stroke="rgb(255, 112, 67)" stroke-width="2px" d="M25.523437499999996,200.83839360692284L27.84375,166.1523446985352L30.1640625,153.29776108312444L32.484375,159.83637347590857L34.8046875,155.83989508645647L37.125,156.79191420467146L39.4453125,157.96239146224468L41.765625,151.6776860213095L44.0859375,142.68184647021155L46.40625,138.03326052893408L48.7265625,133.9420062165255L51.04687499999999,127.78776627680904L53.36718750000001,123.52743250074167L55.6875,126.42967561339483L58.0078125,125.92669619897028L60.328125,117.64756793242249L62.6484375,113.6645234327224L64.96875,108.08400966029299L67.2890625,102.27059780164736L69.609375,96.75870370278926L71.92968750000001,94.8006522286536L74.25,91.67898194877091L76.5703125,91.25727427949104L78.890625,86.66551814454073L81.2109375,84.19681909085669L83.53125,81.88320915331357L85.8515625,78.73484413466025L88.171875,75.20222377228252L90.4921875,73.28334270606975L92.8125,73.75383536201097L95.1328125,74.81676681560808L97.453125,72.28398074800779L99.7734375,72.29688750093622L102.09374999999999,71.11919051489734L104.4140625,70.00437014022931L106.73437500000001,69.88621862959069L109.0546875,68.61090401329892L111.375,69.0855476435985L113.6953125,68.48933742536578L116.015625,68.52007069947945L118.3359375,69.01787309765584L120.65625,69.8636401341935L122.9765625,69.06901996103487L125.296875,66.81485066830423L127.6171875,66.08530558349244L129.9375,65.54179506865857" style="fill: none;" fill="none"></path></g><g><path stroke="rgb(0, 119, 187)" stroke-width="2px" d="M25.523437499999996,174.27271857586777L27.84375,160.72752345914057L30.1640625,146.063547257435L32.484375,145.06856611300333L34.8046875,151.72511790404846L37.125,144.11989833759048L39.4453125,136.7261624241231L41.765625,136.80331054483722L44.0859375,132.61656409028103L46.40625,129.63647082483197L48.7265625,117.83755979821183L51.04687499999999,108.54319068017874L53.36718750000001,92.02632268520239L55.6875,78.23447170083703L58.0078125,67.35637020933302L60.328125,62.58616968578226L62.6484375,55.55086237367469L64.96875,51.02961565985365L67.2890625,46.50795116379744L69.609375,41.98451524794048L71.92968750000001,40.24623703363727L74.25,39.88152072048955L76.5703125,41.234646286554415L78.890625,36.20960521285373L81.2109375,27.596583780464197L83.53125,28.604028489815192L85.8515625,30.745752611558153L88.171875,29.326570074595516L90.4921875,26.64640152590247L92.8125,26.96842971456961L95.1328125,21.87592166598851L97.453125,24.573690588751557L99.7734375,24.728766842846046L102.09374999999999,22.062359333965137L104.4140625,24.9442789485388L106.73437500000001,25.4685000007589L109.0546875,24.93175162130335L111.375,26.154626542112887L113.6953125,23.820176251852725L116.015625,19.067361725163057L118.3359375,19.931104110524323L120.65625,16.4018389189665L122.9765625,15.858916319196803L125.296875,16.38171192701775L127.6171875,19.089379255875503L129.9375,19.252046892509462L132.2578125,19.836863515624984L134.578125,21.663463741155084L136.8984375,21.633368478214948L139.21875,20.91549169240804L141.5390625,19.45340335884711L143.85937500000003,22.305055209530583L146.1796875,24.661362257402555L148.5,23.866802789981136L150.8203125,24.89758169976389L153.140625,21.95641954899078L155.4609375,25.56071289636166L157.78125,23.609549062564493L160.1015625,23.083202043955836L162.421875,22.227444637322318L164.7421875,24.603542023974462L167.0625,22.432815708947604L169.38281249999997,21.279265722809143L171.703125,22.738052061135576L174.0234375,22.433936791484392L176.34375,20.584645392421695L178.66406250000003,21.06147549180577L180.984375,18.403077310631684L183.3046875,15.495288460617141L185.625,12.169901353111872L187.9453125,10.387943500577286L190.265625,11.146739294901284L192.5859375,12.407497702095581L194.90625,14.969500462103584L197.2265625,15.950910311638621L199.546875,15.986605108985609L201.8671875,16.24502439876582L204.18749999999997,15.046635688866736L206.5078125,14.617464974669177L208.828125,14.065918355301756L211.1484375,14.118657226926357L213.46875000000003,14.157947686285572L215.7890625,14.650847953102828L218.109375,16.177155295226033L220.4296875,16.155157621750973L222.75,16.602410458035344L225.0703125,16.471972718043258L227.390625,17.765707682377908L229.7109375,18.72954023080399L232.03125,19.44759547937965L234.3515625,18.82346222467092L236.671875,19.517567364809487L238.99218749999997,18.875591279316733L241.3125,18.6291335329171L243.6328125,18.213708074557438L245.953125,18.3678449826636L248.27343750000003,17.78722143889204L250.59375,18.28193910481952L252.9140625,18.41867710020866L255.234375,18.752373572500236L257.5546875,19.000977444357545" style="fill: none;" fill="none"></path></g></g></g></g><g opacity="0.2"><g><g><g><path stroke="rgb(204, 51, 17)" stroke-width="2px" d="M25.523437499999996,170.4204978834499L27.84375,153.68319948694923L30.1640625,141.56307031891563L32.484375,150.7974327531728L34.8046875,166.9576209620996L37.125,133.48297621445224L39.4453125,128.28864884376526L41.765625,116.16851967573166L44.0859375,109.24271787838504L46.40625,105.20268281481482L48.7265625,78.0766817222942L51.04687499999999,89.61965274810791L53.36718750000001,46.910669543526396L55.6875,37.676283131946214L58.0078125,51.52783877199347L60.328125,28.44189672036604L62.6484375,44.60203697464682L64.96875,42.2934523604133L67.2890625,54.413605505769915L69.609375,48.06493787332014L71.92968750000001,35.36769851771268L74.25,37.099148967049345L76.5703125,38.25341729684309L78.890625,50.37357044219971L81.2109375,32.48193178393625L83.53125,45.17921909418973L85.8515625,29.596213004805822L88.171875,23.247545372356065L90.4921875,33.63624806837603L92.8125,28.44189672036604L95.1328125,33.059065948833116L97.453125,31.90479761903937L99.7734375,32.48193178393625L102.09374999999999,28.44189672036604L104.4140625,37.676283131946214L106.73437500000001,14.5903410803188L109.0546875,30.173347169702694L111.375,43.44776864485308L113.6953125,28.44189672036604L116.015625,27.287580435926273L118.3359375,36.521966847506434L120.65625,24.40186165679585L122.9765625,10.550258062102575L125.296875,40.562001911076635L127.6171875,34.79051639816977" style="fill: none;" fill="none"></path></g><g><path stroke="rgb(255, 112, 67)" stroke-width="2px" d="M25.523437499999996,200.83839360692284L27.84375,140.3112382617864L30.1640625,136.5864810184999L32.484375,171.04040759260005L34.8046875,147.76072877103633L37.125,158.93497652357274L39.4453125,160.7973431565545L41.765625,135.65529770200902L44.0859375,118.89395005052741L46.40625,125.4122572432865L48.7265625,122.61868331649087L51.04687499999999,110.5132522474636L53.36718750000001,111.44443556395444L55.6875,134.7241143855182L58.0078125,124.4810499494726L60.328125,93.75190459598197L62.6484375,102.13257842172278L64.96875,91.88953796300022L67.2890625,85.37120679291813L69.609375,80.71529021046378L71.92968750000001,89.0959400588816L74.25,82.57765684344552L76.5703125,90.02712337537244L78.890625,73.26577572389084L81.2109375,76.9905089898543L83.53125,75.12814235687256L85.8515625,69.54104245792736L88.171875,64.885077920827L90.4921875,67.67867582494563L92.8125,75.12814235687256L95.1328125,77.92174026099119L97.453125,64.885077920827L99.7734375,72.33459240739997L102.09374999999999,67.67867582494563L104.4140625,66.74749250845477L106.73437500000001,69.54104245792736L109.0546875,64.885077920827L111.375,70.47222577441822L113.6953125,66.74749250845477L116.015625,68.6098591414365L118.3359375,70.47222577441822L120.65625,72.33459240739997L122.9765625,66.74749250845477L125.296875,60.22916133837267L127.6171875,63.953894604336135L129.9375,63.953894604336135" style="fill: none;" fill="none"></path></g><g><path stroke="rgb(0, 119, 187)" stroke-width="2px" d="M25.523437499999996,174.27271857586777L27.84375,150.63635309717873L30.1640625,127.00001159581272L32.484375,143.36364739049566L34.8046875,165.18181246519092L37.125,127.00001159581272L39.4453125,118.81818170980975L41.765625,136.99999393116346L44.0859375,121.54545833847739L46.40625,121.54545833847739L48.7265625,85.18183389577L51.04687499999999,82.45455726710233L53.36718750000001,45.18180864507503L55.6875,38.81817916306582L58.0078125,36.09090253439817L60.328125,48.81816149841655L62.6484375,35.18182630972429L64.96875,37.90910293839194L67.2890625,33.3636259057305L69.609375,28.818196827715084L71.92968750000001,35.18182630972429L74.25,38.81817916306582L76.5703125,45.18180864507503L78.890625,21.545443166386L81.2109375,2.454554720358408L83.53125,31.54547345638275L85.8515625,36.99997875907205L88.171875,25.181796019727543L90.4921875,18.818166537718334L92.8125,27.90907264839519L95.1328125,6.999983798373828L97.453125,32.454549681056626L99.7734375,25.181796019727543L102.09374999999999,14.272737459702933L104.4140625,33.3636259057305L106.73437500000001,26.999996423721313L109.0546875,23.36364357037977L111.375,29.72727305238898L113.6953125,17.00001408837058L116.015625,5.181831349026075L118.3359375,22.454567345705893L120.65625,6.090907573699951L122.9765625,14.272737459702933L125.296875,17.909090313044455L127.6171875,26.999996423721313L129.9375,19.727290717038247L132.2578125,21.545443166386L134.578125,26.999996423721313L136.8984375,21.545443166386L139.21875,18.818166537718334L141.5390625,15.18181368437681L143.85937500000003,30.636349277062855L146.1796875,31.54547345638275L148.5,21.545443166386L150.8203125,27.90907264839519L153.140625,13.363613280383017L155.4609375,36.09090253439817L157.78125,17.909090313044455L160.1015625,21.545443166386L162.421875,19.727290717038247L164.7421875,31.54547345638275L167.0625,16.090889909050684L169.38281249999997,17.909090313044455L171.703125,26.999996423721313L174.0234375,21.545443166386L176.34375,15.18181368437681L178.66406250000003,22.454567345705893L180.984375,10.63638460636139L183.3046875,6.999983798373828L185.625,2.454554720358408L187.9453125,5.181831349026075L190.265625,13.363613280383017L192.5859375,16.090889909050684L194.90625,22.454567345705893L197.2265625,18.818166537718334L199.546875,16.090889909050684L201.8671875,17.00001408837058L204.18749999999997,11.545460831035266L206.5078125,13.363613280383017L208.828125,12.454537055709142L211.1484375,14.272737459702933L213.46875000000003,14.272737459702933L215.7890625,16.090889909050684L218.109375,20.636366941712122L220.4296875,16.090889909050684L222.75,17.909090313044455L225.0703125,16.090889909050684L227.390625,21.545443166386L229.7109375,21.545443166386L232.03125,21.545443166386L234.3515625,17.00001408837058L236.671875,21.545443166386L238.99218749999997,17.00001408837058L241.3125,17.909090313044455L243.6328125,17.00001408837058L245.953125,18.818166537718334L248.27343750000003,16.090889909050684L250.59375,19.727290717038247L252.9140625,18.818166537718334L255.234375,19.727290717038247L257.5546875,19.727290717038247" style="fill: none;" fill="none"></path></g></g></g></g></g></g><g transform="translate(51, 177)" clip-path="url(#clip_1)"><clipPath id="clip_1"><rect width="278" height="23"></rect></clipPath><g><g><line x1="0" y1="0" x2="0" y2="5" style="visibility: inherit;" fill="rgb(0, 0, 0)" stroke="rgb(204, 204, 204)" stroke-width="1px"></line><line x1="23.203125" y1="0" x2="23.203125" y2="5" style="visibility: inherit;" fill="rgb(0, 0, 0)" stroke="rgb(204, 204, 204)" stroke-width="1px"></line><line x1="46.40625" y1="0" x2="46.40625" y2="5" style="visibility: inherit;" fill="rgb(0, 0, 0)" stroke="rgb(204, 204, 204)" stroke-width="1px"></line><line x1="69.609375" y1="0" x2="69.609375" y2="5" style="visibility: inherit;" fill="rgb(0, 0, 0)" stroke="rgb(204, 204, 204)" stroke-width="1px"></line><line x1="92.8125" y1="0" x2="92.8125" y2="5" style="visibility: inherit;" fill="rgb(0, 0, 0)" stroke="rgb(204, 204, 204)" stroke-width="1px"></line><line x1="116.015625" y1="0" x2="116.015625" y2="5" style="visibility: inherit;" fill="rgb(0, 0, 0)" stroke="rgb(204, 204, 204)" stroke-width="1px"></line><line x1="139.21875" y1="0" x2="139.21875" y2="5" style="visibility: inherit;" fill="rgb(0, 0, 0)" stroke="rgb(204, 204, 204)" stroke-width="1px"></line><line x1="162.421875" y1="0" x2="162.421875" y2="5" style="visibility: inherit;" fill="rgb(0, 0, 0)" stroke="rgb(204, 204, 204)" stroke-width="1px"></line><line x1="185.625" y1="0" x2="185.625" y2="5" style="visibility: inherit;" fill="rgb(0, 0, 0)" stroke="rgb(204, 204, 204)" stroke-width="1px"></line><line x1="208.828125" y1="0" x2="208.828125" y2="5" style="visibility: inherit;" fill="rgb(0, 0, 0)" stroke="rgb(204, 204, 204)" stroke-width="1px"></line><line x1="232.03125" y1="0" x2="232.03125" y2="5" style="visibility: inherit;" fill="rgb(0, 0, 0)" stroke="rgb(204, 204, 204)" stroke-width="1px"></line><line x1="255.234375" y1="0" x2="255.234375" y2="5" style="visibility: inherit;" fill="rgb(0, 0, 0)" stroke="rgb(204, 204, 204)" stroke-width="1px"></line><line x1="278.4375" y1="0" x2="278.4375" y2="5" style="visibility: inherit;" fill="rgb(0, 0, 0)" stroke="rgb(204, 204, 204)" stroke-width="1px"></line></g><g transform="translate(0, 8)"><text x="0" y="0" dx="0em" dy="0.95em" style="text-anchor: middle; visibility: hidden; font-family: Roboto, sans-serif; font-size: 12px; font-weight: 200;" fill="rgb(33, 33, 33)" stroke="none" stroke-width="1px">-10</text><text x="23.203125" y="0" dx="0em" dy="0.95em" style="text-anchor: middle; visibility: inherit; font-family: Roboto, sans-serif; font-size: 12px; font-weight: 200;" fill="rgb(33, 33, 33)" stroke="none" stroke-width="1px">0</text><text x="46.40625" y="0" dx="0em" dy="0.95em" style="text-anchor: middle; visibility: inherit; font-family: Roboto, sans-serif; font-size: 12px; font-weight: 200;" fill="rgb(33, 33, 33)" stroke="none" stroke-width="1px">10</text><text x="69.609375" y="0" dx="0em" dy="0.95em" style="text-anchor: middle; visibility: inherit; font-family: Roboto, sans-serif; font-size: 12px; font-weight: 200;" fill="rgb(33, 33, 33)" stroke="none" stroke-width="1px">20</text><text x="92.8125" y="0" dx="0em" dy="0.95em" style="text-anchor: middle; visibility: inherit; font-family: Roboto, sans-serif; font-size: 12px; font-weight: 200;" fill="rgb(33, 33, 33)" stroke="none" stroke-width="1px">30</text><text x="116.015625" y="0" dx="0em" dy="0.95em" style="text-anchor: middle; visibility: inherit; font-family: Roboto, sans-serif; font-size: 12px; font-weight: 200;" fill="rgb(33, 33, 33)" stroke="none" stroke-width="1px">40</text><text x="139.21875" y="0" dx="0em" dy="0.95em" style="text-anchor: middle; visibility: inherit; font-family: Roboto, sans-serif; font-size: 12px; font-weight: 200;" fill="rgb(33, 33, 33)" stroke="none" stroke-width="1px">50</text><text x="162.421875" y="0" dx="0em" dy="0.95em" style="text-anchor: middle; visibility: inherit; font-family: Roboto, sans-serif; font-size: 12px; font-weight: 200;" fill="rgb(33, 33, 33)" stroke="none" stroke-width="1px">60</text><text x="185.625" y="0" dx="0em" dy="0.95em" style="text-anchor: middle; visibility: inherit; font-family: Roboto, sans-serif; font-size: 12px; font-weight: 200;" fill="rgb(33, 33, 33)" stroke="none" stroke-width="1px">70</text><text x="208.828125" y="0" dx="0em" dy="0.95em" style="text-anchor: middle; visibility: inherit; font-family: Roboto, sans-serif; font-size: 12px; font-weight: 200;" fill="rgb(33, 33, 33)" stroke="none" stroke-width="1px">80</text><text x="232.03125" y="0" dx="0em" dy="0.95em" style="text-anchor: middle; visibility: inherit; font-family: Roboto, sans-serif; font-size: 12px; font-weight: 200;" fill="rgb(33, 33, 33)" stroke="none" stroke-width="1px">90</text><text x="255.234375" y="0" dx="0em" dy="0.95em" style="text-anchor: middle; visibility: inherit; font-family: Roboto, sans-serif; font-size: 12px; font-weight: 200;" fill="rgb(33, 33, 33)" stroke="none" stroke-width="1px">100</text><text x="278.4375" y="0" dx="0em" dy="0.95em" style="text-anchor: middle; visibility: hidden; font-family: Roboto, sans-serif; font-size: 12px; font-weight: 200;" fill="rgb(33, 33, 33)" stroke="none" stroke-width="1px">110</text></g><line x1="0" y1="0" x2="278.4375" y2="0" fill="rgb(0, 0, 0)" stroke="rgb(204, 204, 204)" stroke-width="1px"></line></g></g></g></g></svg>