<svg viewBox="0 0 330 200" xmlns="http://www.w3.org/2000/svg"><g><g><g><g><g><line x1="41.171875" y1="167.33544461420274" x2="36.171875" y2="167.33544461420274" style="visibility: inherit;" fill="rgb(0, 0, 0)" stroke="rgb(204, 204, 204)" stroke-width="1px"></line><line x1="41.171875" y1="114.89600644716532" x2="36.171875" y2="114.89600644716532" style="visibility: inherit;" fill="rgb(0, 0, 0)" stroke="rgb(204, 204, 204)" stroke-width="1px"></line><line x1="41.171875" y1="77.68963295552584" x2="36.171875" y2="77.68963295552584" style="visibility: inherit;" fill="rgb(0, 0, 0)" stroke="rgb(204, 204, 204)" stroke-width="1px"></line><line x1="41.171875" y1="48.830127593616695" x2="36.171875" y2="48.830127593616695" style="visibility: inherit;" fill="rgb(0, 0, 0)" stroke="rgb(204, 204, 204)" stroke-width="1px"></line><line x1="41.171875" y1="25.250194788488407" x2="36.171875" y2="25.250194788488407" style="visibility: inherit;" fill="rgb(0, 0, 0)" stroke="rgb(204, 204, 204)" stroke-width="1px"></line><line x1="41.171875" y1="5.313645671044098" x2="36.171875" y2="5.313645671044098" style="visibility: inherit;" fill="rgb(0, 0, 0)" stroke="rgb(204, 204, 204)" stroke-width="1px"></line></g><g transform="translate(31.171875, 0)"><text x="0" y="167.33544461420274" dx="0em" dy="0.3em" style="text-anchor: end; visibility: inherit; font-family: Roboto, sans-serif; font-size: 12px; font-weight: 200;" fill="rgb(33, 33, 33)" stroke="none" stroke-width="1px">0.2</text><text x="0" y="114.89600644716532" dx="0em" dy="0.3em" style="text-anchor: end; visibility: inherit; font-family: Roboto, sans-serif; font-size: 12px; font-weight: 200;" fill="rgb(33, 33, 33)" stroke="none" stroke-width="1px">0.3</text><text x="0" y="77.68963295552584" dx="0em" dy="0.3em" style="text-anchor: end; visibility: inherit; font-family: Roboto, sans-serif; font-size: 12px; font-weight: 200;" fill="rgb(33, 33, 33)" stroke="none" stroke-width="1px">0.4</text><text x="0" y="48.830127593616695" dx="0em" dy="0.3em" style="text-anchor: end; visibility: inherit; font-family: Roboto, sans-serif; font-size: 12px; font-weight: 200;" fill="rgb(33, 33, 33)" stroke="none" stroke-width="1px">0.5</text><text x="0" y="25.250194788488407" dx="0em" dy="0.3em" style="text-anchor: end; visibility: inherit; font-family: Roboto, sans-serif; font-size: 12px; font-weight: 200;" fill="rgb(33, 33, 33)" stroke="none" stroke-width="1px">0.6</text><text x="0" y="5.313645671044098" dx="0em" dy="0.3em" style="text-anchor: end; visibility: hidden; font-family: Roboto, sans-serif; font-size: 12px; font-weight: 200;" fill="rgb(33, 33, 33)" stroke="none" stroke-width="1px">0.7</text></g><line x1="41.171875" y1="0" x2="41.171875" y2="177" fill="rgb(0, 0, 0)" stroke="rgb(204, 204, 204)" stroke-width="1px"></line></g></g><g transform="translate(41, 0)" clip-path="url(#clip_0)"><clipPath id="clip_0"><rect width="288" height="177"></rect></clipPath><g><g><g><line x1="0" y1="0" x2="0" y2="177" fill="rgb(0, 0, 0)" stroke="rgb(66, 66, 66)" stroke-width="1px" opacity="0.25"></line><line x1="24.069010416666664" y1="0" x2="24.069010416666664" y2="177" fill="rgb(0, 0, 0)" stroke="rgb(66, 66, 66)" stroke-width="1px" opacity="0.25"></line><line x1="48.13802083333333" y1="0" x2="48.13802083333333" y2="177" fill="rgb(0, 0, 0)" stroke="rgb(66, 66, 66)" stroke-width="1px" opacity="0.25"></line><line x1="72.20703125" y1="0" x2="72.20703125" y2="177" fill="rgb(0, 0, 0)" stroke="rgb(66, 66, 66)" stroke-width="1px" opacity="0.25"></line><line x1="96.27604166666666" y1="0" x2="96.27604166666666" y2="177" fill="rgb(0, 0, 0)" stroke="rgb(66, 66, 66)" stroke-width="1px" opacity="0.25"></line><line x1="120.34505208333334" y1="0" x2="120.34505208333334" y2="177" fill="rgb(0, 0, 0)" stroke="rgb(66, 66, 66)" stroke-width="1px" opacity="0.25"></line><line x1="144.4140625" y1="0" x2="144.4140625" y2="177" fill="rgb(0, 0, 0)" stroke="rgb(66, 66, 66)" stroke-width="1px" opacity="0.25"></line><line x1="168.48307291666669" y1="0" x2="168.48307291666669" y2="177" fill="rgb(0, 0, 0)" stroke="rgb(66, 66, 66)" stroke-width="1px" opacity="0.25"></line><line x1="192.55208333333331" y1="0" x2="192.55208333333331" y2="177" fill="rgb(0, 0, 0)" stroke="rgb(66, 66, 66)" stroke-width="1px" opacity="0.25"></line><line x1="216.62109375" y1="0" x2="216.62109375" y2="177" fill="rgb(0, 0, 0)" stroke="rgb(66, 66, 66)" stroke-width="1px" opacity="0.25"></line><line x1="240.69010416666669" y1="0" x2="240.69010416666669" y2="177" fill="rgb(0, 0, 0)" stroke="rgb(66, 66, 66)" stroke-width="1px" opacity="0.25"></line><line x1="264.7591145833333" y1="0" x2="264.7591145833333" y2="177" fill="rgb(0, 0, 0)" stroke="rgb(66, 66, 66)" stroke-width="1px" opacity="0.25"></line><line x1="288.828125" y1="0" x2="288.828125" y2="177" fill="rgb(0, 0, 0)" stroke="rgb(66, 66, 66)" stroke-width="1px" opacity="0.25"></line></g><g><line x1="0" y1="167.33544461420274" x2="288.828125" y2="167.33544461420274" fill="rgb(0, 0, 0)" stroke="rgb(66, 66, 66)" stroke-width="1px" opacity="0.25"></line><line x1="0" y1="114.89600644716532" x2="288.828125" y2="114.89600644716532" fill="rgb(0, 0, 0)" stroke="rgb(66, 66, 66)" stroke-width="1px" opacity="0.25"></line><line x1="0" y1="77.68963295552584" x2="288.828125" y2="77.68963295552584" fill="rgb(0, 0, 0)" stroke="rgb(66, 66, 66)" stroke-width="1px" opacity="0.25"></line><line x1="0" y1="48.830127593616695" x2="288.828125" y2="48.830127593616695" fill="rgb(0, 0, 0)" stroke="rgb(66, 66, 66)" stroke-width="1px" opacity="0.25"></line><line x1="0" y1="25.250194788488407" x2="288.828125" y2="25.250194788488407" fill="rgb(0, 0, 0)" stroke="rgb(66, 66, 66)" stroke-width="1px" opacity="0.25"></line><line x1="0" y1="5.313645671044098" x2="288.828125" y2="5.313645671044098" fill="rgb(0, 0, 0)" stroke="rgb(66, 66, 66)" stroke-width="1px" opacity="0.25"></line></g></g></g><g><g><line x1="24.069010416666664" y1="0" x2="24.069010416666664" y2="177" fill="rgb(0, 0, 0)" stroke="rgb(153, 153, 153)" stroke-width="1.5px"></line></g></g><g><g><g><g><g><path stroke="rgb(204, 51, 17)" stroke-width="2px" d="M26.475911458333332,168.01589938190762L28.8828125,156.6473633168248L31.289713541666668,157.64213441285668L33.696614583333336,151.65552626012794L36.103515625,145.47799510369882L38.510416666666664,137.6034081685882L40.917317708333336,127.26014520136563L43.32421875,118.51616268276301L45.731119791666664,110.06507801363013L48.13802083333333,102.10503251895842L50.544921875,92.28664788434652L52.951822916666664,78.57368901378138L55.358723958333336,72.62965292578228L57.765625,66.45931884840309L60.17252604166667,61.99532248839736L62.579427083333336,57.7055946805662L64.986328125,54.416530834044174L67.39322916666667,51.21862685652988L69.80013020833333,47.719840676741406L72.20703125,46.78257060404118L74.61393229166667,43.94663185615894L77.02083333333333,44.180953318907946L79.427734375,43.218304777122114L81.83463541666667,42.125683599544104L84.24153645833334,40.3541455356907L86.6484375,39.38021221632007L89.05533854166667,37.34478255140768L91.46223958333333,37.471268909622715L93.869140625,37.2017265343381L96.27604166666666,36.28396315685688L98.68294270833333,36.22128311703706L101.08984375,35.5805216037373L103.49674479166667,36.707834072543605L105.90364583333333,37.910303853126294L108.310546875,38.0952362443181L110.71744791666667,38.79389386346038L113.12434895833333,38.296173942317004L115.53125,37.371211321913194L117.93815104166667,38.140764041916164L120.34505208333334,37.07995274760589L122.751953125,36.346078258674936L125.15885416666667,35.90612702734378L127.56575520833333,34.19750552404442L129.97265625,33.342220581953164L132.37955729166666,34.53046109366134" style="fill: none;" fill="none"></path></g><g><path stroke="rgb(255, 112, 67)" stroke-width="2px" d="M26.475911458333332,180.41533977511133L28.8828125,169.32106539131965L31.289713541666668,156.01082336136196L33.696614583333336,154.09487741856765L36.103515625,151.7142857142857L38.510416666666664,147.78389708702898L40.917317708333336,142.64933534004302L43.32421875,130.05419806569043L45.731119791666664,118.44897188960925L48.13802083333333,106.88251182063095L50.544921875,102.18490033878885L52.951822916666664,98.06196026019079L55.358723958333336,93.58801398978461L57.765625,88.36975362916775L60.17252604166667,81.35175084645842L62.579427083333336,76.99760132900359L64.986328125,75.71819057314212L67.39322916666667,71.97327501464885L69.80013020833333,68.26970463807343L72.20703125,67.88235488372194L74.61393229166667,66.59692949744313L77.02083333333333,66.4073477408017L79.427734375,66.43332157037858L81.83463541666667,65.02291395119671L84.24153645833334,61.79498606566184L86.6484375,58.82006018810935L89.05533854166667,59.88230931033663L91.46223958333333,59.3805865926458L93.869140625,58.949757714721905L96.27604166666666,57.1027744471308L98.68294270833333,56.53613729319878L101.08984375,55.66439718694565L103.49674479166667,54.819699369042745L105.90364583333333,53.57338338785174L108.310546875,52.97490793499182L110.71744791666667,51.66966511188543L113.12434895833333,52.30809048818902L115.53125,51.855895711453456L117.93815104166667,51.75199406866713L120.34505208333334,52.08040574715328L122.751953125,52.42621958258889L125.15885416666667,51.827465852002355L127.56575520833333,51.64819878238291L129.97265625,51.61182561661103L132.37955729166666,51.32919888749024L134.78645833333334,51.11904293029463" style="fill: none;" fill="none"></path></g><g><path stroke="rgb(0, 119, 187)" stroke-width="2px" d="M26.475911458333332,171.48084336587118L28.8828125,164.73456894480216L31.289713541666668,161.7348527198633L33.696614583333336,148.1220068392854L36.103515625,140.8226524298932L38.510416666666664,131.66215725119505L40.917317708333336,125.70487952024598L43.32421875,114.10125443838457L45.731119791666664,107.44347262640724L48.13802083333333,99.97649885829085L50.544921875,86.72765392343717L52.951822916666664,81.18085704035508L55.358723958333336,74.42556027679773L57.765625,68.16301433016915L60.17252604166667,65.55213669741595L62.579427083333336,60.11965603905463L64.986328125,53.64488788008641L67.39322916666667,52.47804068653441L69.80013020833333,52.70938817006882L72.20703125,49.72307836830103L74.61393229166667,45.31181403444289L77.02083333333333,43.335925955315595L79.427734375,40.707688876731716L81.83463541666667,39.899188293139154L84.24153645833334,41.037737064582274L86.6484375,37.3898473377052L89.05533854166667,35.361678532798244L91.46223958333333,35.08257345691441L93.869140625,34.14213455974423L96.27604166666666,34.47372432718371L98.68294270833333,33.782703741144374L101.08984375,33.72863641181979L103.49674479166667,34.404462098670464L105.90364583333333,36.11938380912372L108.310546875,34.67419585684219L110.71744791666667,32.92390558747094L113.12434895833333,32.243934200967686L115.53125,33.13180079326759L117.93815104166667,32.32565676795706L120.34505208333334,32.343761986217615L122.751953125,31.79320547796815L125.15885416666667,30.92164803393098L127.56575520833333,30.324606392522185L129.97265625,28.87465904671334L132.37955729166666,28.28558954012946L134.78645833333334,28.361282156906704L137.193359375,27.026411708542923L139.60026041666666,26.9734754010195L142.00716145833331,27.866441033456923L144.4140625,28.181892207599873L146.82096354166666,27.696595389592616L149.22786458333334,26.179816704244743L151.634765625,26.320894218307643L154.04166666666666,26.902241189064544L156.44856770833331,26.094884506089443L158.85546875,26.661727407956214L161.26236979166666,25.609496087046082L163.66927083333334,26.11263661095079L166.076171875,26.23217716970082L168.48307291666669,26.841568080827177L170.88997395833334,27.384311046154235L173.296875,27.206584701581843L175.70377604166666,28.145978905687226L178.11067708333334,27.423308993821635L180.517578125,26.762482586991503L182.92447916666666,26.17778502367818L185.33138020833334,26.60755322827098L187.73828125,27.026177771510387L190.14518229166666,27.571598969354827L192.55208333333331,28.59340266785228L194.958984375,29.768147510114037L197.36588541666666,28.628416532294L199.77278645833334,28.110950467798162L202.1796875,27.55769444183629L204.58658854166669,27.741142249964817L206.99348958333334,27.082415630216257L209.400390625,25.419886108722515L211.80729166666666,25.442194260532357L214.21419270833334,25.285714285714295L216.62109375,25.2541409956617L219.02799479166666,25.5120200447765L221.43489583333334,25.204412335192682L223.841796875,24.283035675290474L226.24869791666666,24.039314790602965L228.65559895833331,24.677210663129944L231.0625,24.921471286552116L233.46940104166666,24.94499205244258L235.87630208333334,24.733835137758728L238.283203125,25.31764953079698L240.69010416666669,25.973466046728063L243.09700520833334,26.11793565014262L245.50390625,25.896798239658004L247.91080729166666,26.253031601707953L250.31770833333334,26.22236262481563L252.724609375,26.220966485202535L255.13151041666666,26.05603256742839L257.53841145833337,25.39024444028243L259.9453125,25.184117407449556L262.3522135416667,25.207525843579155L264.7591145833333,25.43909970887037L267.166015625,25.611892162962075" style="fill: none;" fill="none"></path></g></g></g></g><g opacity="0.2"><g><g><g><path stroke="rgb(204, 51, 17)" stroke-width="2px" d="M26.475911458333332,168.01589938190762L28.8828125,148.78338329486667L31.289713541666668,158.94690758187713L33.696614583333336,142.00067389675502L36.103515625,133.82439806924705L38.510416666666664,121.45717840220843L40.917317708333336,105.18056247790184L43.32421875,98.57961738883219L45.731119791666664,90.06199983425753L48.13802083333333,82.67967724163246L50.544921875,68.45524411330676L52.951822916666664,46.40640477376957L55.358723958333336,57.121085365939926L57.765625,50.292787254170754L60.17252604166667,49.96157463030872L62.579427083333336,46.067167865616504L64.986328125,45.33998763435597L67.39322916666667,42.36246584294203L69.80013020833333,38.05557514527485L72.20703125,44.09250114587904L74.61393229166667,36.021978994093246L77.02083333333333,44.86655799597332L79.427734375,40.45044646264137L81.83463541666667,38.98895578836988L84.24153645833334,35.31751214396974L86.6484375,36.57787166930522L89.05533854166667,31.577984474014514L91.46223958333333,37.84138669636529L93.869140625,36.417648680569414L96.27604166666666,33.63988275795608L98.68294270833333,36.03835961975242L101.08984375,33.72667616204621L103.49674479166667,40.05851400087052L105.90364583333333,41.48861958375619L108.310546875,38.63702427928803L110.71744791666667,40.856891170740184L113.12434895833333,36.852964150015765L115.53125,34.706207155047316L117.93815104166667,40.415626018139356L120.34505208333334,34.029681923780544L122.751953125,34.225580690822056L125.15885416666667,34.62929399111565L127.56575520833333,29.331211067419495L129.97265625,30.875375368813614L132.37955729166666,38.0658597841405" style="fill: none;" fill="none"></path></g><g><path stroke="rgb(255, 112, 67)" stroke-width="2px" d="M26.475911458333332,180.41533977511133L28.8828125,161.63348410175718L31.289713541666668,140.53215292483952L33.696614583333336,150.87644610451562L36.103515625,147.03157695119955L38.510416666666664,139.3504418163724L40.917317708333336,130.99778018272622L43.32421875,102.5914399265725L45.731119791666664,91.99694601844347L48.13802083333333,79.87055193531364L50.544921875,90.00829467720334L52.951822916666664,87.1456211327109L55.358723958333336,81.68142821114388L57.765625,74.52170104626259L60.17252604166667,63.07309531155519L62.579427083333336,65.19492800849929L64.986328125,72.08377499074444L67.39322916666667,61.682015215867274L69.80013020833333,58.06928372790462L72.20703125,66.76145800627215L74.61393229166667,62.92311565368649L77.02083333333333,65.85619729268677L79.427734375,66.50911887206097L81.83463541666667,60.99284641851044L84.24153645833334,52.808606612114694L86.6484375,50.50631295671869L89.05533854166667,63.03516465767402L91.46223958333333,57.926332567028325L93.869140625,57.699548756435654L96.27604166666666,51.85404626811554L98.68294270833333,54.89498741009277L101.08984375,53.15097093003125L103.49674479166667,52.383193489475566L105.90364583333333,49.9997239766051L108.310546875,51.242197571532564L110.71744791666667,47.93019978211283L113.12434895833333,54.19150602661709L115.53125,50.54378750675981L117.93815104166667,51.4489197859918L120.34505208333334,53.044678113643315L122.751953125,53.441860069796384L125.15885416666667,50.09388940744553L127.56575520833333,51.1258789282159L129.97265625,51.50561781767934L132.37955729166666,50.50700798813998L134.78645833333334,50.50700798813998" style="fill: none;" fill="none"></path></g><g><path stroke="rgb(0, 119, 187)" stroke-width="2px" d="M26.475911458333332,171.48084336587118L28.8828125,159.92786789469136L31.289713541666668,157.93635539191257L33.696614583333336,127.68501818277429L36.103515625,127.21663957855625L38.510416666666664,113.14567608445356L40.917317708333336,112.32043201489668L43.32421875,88.51364899036994L45.731119791666664,91.33038403762166L48.13802083333333,81.64102660616321L50.544921875,55.867590304529074L52.951822916666664,66.7736521789412L55.358723958333336,56.988357082011625L57.765625,51.77501712464935L60.17252604166667,58.32880323311974L62.579427083333336,45.610095913860654L64.986328125,36.542578097621565L67.39322916666667,49.15029844340623L69.80013020833333,53.38426708257512L72.20703125,41.403839906401736L74.61393229166667,33.25621643147293L77.02083333333333,37.741698632103734L79.427734375,33.33264534489094L81.83463541666667,37.56829830283873L84.24153645833334,44.41975162606829L86.6484375,27.292504262522154L89.05533854166667,29.614844291743506L91.46223958333333,34.27086841769795L93.869140625,31.433819975921065L96.27604166666666,35.44719374354446L98.68294270833333,31.78502567569755L101.08984375,33.57082152806693L103.49674479166667,36.39924527943608L105.90364583333333,41.26367202772882L108.310546875,30.54238056587082L110.71744791666667,27.94212102040486L113.12434895833333,30.27763717343656L115.53125,35.76118805412928L117.93815104166667,29.998865799175547L120.34505208333334,32.39667160126L122.751953125,30.19802603946327L125.15885416666667,28.408484935992885L127.56575520833333,28.59594012518717L129.97265625,24.729356607919737L132.37955729166666,26.579798731752884L134.78645833333334,28.582677054105428L137.193359375,23.20361630616337L139.60026041666666,26.818942503304594L142.00716145833331,30.511184888983376L144.4140625,29.10793626735913L146.82096354166666,26.28911128368845L149.22786458333334,21.84770056936073L151.634765625,26.73394553434757L154.04166666666666,28.6158109090802L156.44856770833331,23.764603843447382L158.85546875,28.332173611682364L161.26236979166666,22.58348011382697L163.66927083333334,27.593909556444622L166.076171875,26.582057393712066L168.48307291666669,28.638573103040212L170.88997395833334,28.98314565468643L173.296875,26.68873971482128L175.70377604166666,30.930230776749482L178.11067708333334,25.334820994980507L180.517578125,24.85095301275838L182.92447916666666,24.484539314911608L185.33138020833334,27.8713941355548L187.73828125,28.257038194904737L190.14518229166666,29.1783892215662L192.55208333333331,31.62576910355927L194.958984375,33.26266807540787L197.36588541666666,25.355019892650763L199.77278645833334,26.610891251428356L202.1796875,25.95474606191403L204.58658854166669,28.278593069408533L206.99348958333334,25.176900093817583L209.400390625,20.681643577594226L211.80729166666666,25.507391108554955L214.21419270833334,24.829628889728514L216.62109375,25.161941592531104L219.02799479166666,26.268390448209292L221.43489583333334,24.30988387483002L223.841796875,21.628172774154145L226.24869791666666,23.329887280894805L228.65559895833331,26.5590961683062L231.0625,25.63774960349857L233.46940104166666,25.013734098743615L235.87630208333334,24.118893327028147L238.283203125,27.038557618402447L240.69010416666669,27.90875273081322L243.09700520833334,26.54094034663465L245.50390625,25.252887744107337L247.91080729166666,27.299448343046148L250.31770833333334,26.132802743553498L252.724609375,26.21688765384461L255.13151041666666,25.5753682425349L257.53841145833337,23.464505372074953L259.9453125,24.583778284686062L262.3522135416667,25.275939477134646L264.7591145833333,26.118043705538575L267.166015625,26.118043705538575" style="fill: none;" fill="none"></path></g></g></g></g></g></g><g transform="translate(41, 177)" clip-path="url(#clip_1)"><clipPath id="clip_1"><rect width="288" height="23"></rect></clipPath><g><g><line x1="0" y1="0" x2="0" y2="5" style="visibility: inherit;" fill="rgb(0, 0, 0)" stroke="rgb(204, 204, 204)" stroke-width="1px"></line><line x1="24.069010416666664" y1="0" x2="24.069010416666664" y2="5" style="visibility: inherit;" fill="rgb(0, 0, 0)" stroke="rgb(204, 204, 204)" stroke-width="1px"></line><line x1="48.13802083333333" y1="0" x2="48.13802083333333" y2="5" style="visibility: inherit;" fill="rgb(0, 0, 0)" stroke="rgb(204, 204, 204)" stroke-width="1px"></line><line x1="72.20703125" y1="0" x2="72.20703125" y2="5" style="visibility: inherit;" fill="rgb(0, 0, 0)" stroke="rgb(204, 204, 204)" stroke-width="1px"></line><line x1="96.27604166666666" y1="0" x2="96.27604166666666" y2="5" style="visibility: inherit;" fill="rgb(0, 0, 0)" stroke="rgb(204, 204, 204)" stroke-width="1px"></line><line x1="120.34505208333334" y1="0" x2="120.34505208333334" y2="5" style="visibility: inherit;" fill="rgb(0, 0, 0)" stroke="rgb(204, 204, 204)" stroke-width="1px"></line><line x1="144.4140625" y1="0" x2="144.4140625" y2="5" style="visibility: inherit;" fill="rgb(0, 0, 0)" stroke="rgb(204, 204, 204)" stroke-width="1px"></line><line x1="168.48307291666669" y1="0" x2="168.48307291666669" y2="5" style="visibility: inherit;" fill="rgb(0, 0, 0)" stroke="rgb(204, 204, 204)" stroke-width="1px"></line><line x1="192.55208333333331" y1="0" x2="192.55208333333331" y2="5" style="visibility: inherit;" fill="rgb(0, 0, 0)" stroke="rgb(204, 204, 204)" stroke-width="1px"></line><line x1="216.62109375" y1="0" x2="216.62109375" y2="5" style="visibility: inherit;" fill="rgb(0, 0, 0)" stroke="rgb(204, 204, 204)" stroke-width="1px"></line><line x1="240.69010416666669" y1="0" x2="240.69010416666669" y2="5" style="visibility: inherit;" fill="rgb(0, 0, 0)" stroke="rgb(204, 204, 204)" stroke-width="1px"></line><line x1="264.7591145833333" y1="0" x2="264.7591145833333" y2="5" style="visibility: inherit;" fill="rgb(0, 0, 0)" stroke="rgb(204, 204, 204)" stroke-width="1px"></line><line x1="288.828125" y1="0" x2="288.828125" y2="5" style="visibility: inherit;" fill="rgb(0, 0, 0)" stroke="rgb(204, 204, 204)" stroke-width="1px"></line></g><g transform="translate(0, 8)"><text x="0" y="0" dx="0em" dy="0.95em" style="text-anchor: middle; visibility: hidden; font-family: Roboto, sans-serif; font-size: 12px; font-weight: 200;" fill="rgb(33, 33, 33)" stroke="none" stroke-width="1px">-10</text><text x="24.069010416666664" y="0" dx="0em" dy="0.95em" style="text-anchor: middle; visibility: inherit; font-family: Roboto, sans-serif; font-size: 12px; font-weight: 200;" fill="rgb(33, 33, 33)" stroke="none" stroke-width="1px">0</text><text x="48.13802083333333" y="0" dx="0em" dy="0.95em" style="text-anchor: middle; visibility: inherit; font-family: Roboto, sans-serif; font-size: 12px; font-weight: 200;" fill="rgb(33, 33, 33)" stroke="none" stroke-width="1px">10</text><text x="72.20703125" y="0" dx="0em" dy="0.95em" style="text-anchor: middle; visibility: inherit; font-family: Roboto, sans-serif; font-size: 12px; font-weight: 200;" fill="rgb(33, 33, 33)" stroke="none" stroke-width="1px">20</text><text x="96.27604166666666" y="0" dx="0em" dy="0.95em" style="text-anchor: middle; visibility: inherit; font-family: Roboto, sans-serif; font-size: 12px; font-weight: 200;" fill="rgb(33, 33, 33)" stroke="none" stroke-width="1px">30</text><text x="120.34505208333334" y="0" dx="0em" dy="0.95em" style="text-anchor: middle; visibility: inherit; font-family: Roboto, sans-serif; font-size: 12px; font-weight: 200;" fill="rgb(33, 33, 33)" stroke="none" stroke-width="1px">40</text><text x="144.4140625" y="0" dx="0em" dy="0.95em" style="text-anchor: middle; visibility: inherit; font-family: Roboto, sans-serif; font-size: 12px; font-weight: 200;" fill="rgb(33, 33, 33)" stroke="none" stroke-width="1px">50</text><text x="168.48307291666669" y="0" dx="0em" dy="0.95em" style="text-anchor: middle; visibility: inherit; font-family: Roboto, sans-serif; font-size: 12px; font-weight: 200;" fill="rgb(33, 33, 33)" stroke="none" stroke-width="1px">60</text><text x="192.55208333333331" y="0" dx="0em" dy="0.95em" style="text-anchor: middle; visibility: inherit; font-family: Roboto, sans-serif; font-size: 12px; font-weight: 200;" fill="rgb(33, 33, 33)" stroke="none" stroke-width="1px">70</text><text x="216.62109375" y="0" dx="0em" dy="0.95em" style="text-anchor: middle; visibility: inherit; font-family: Roboto, sans-serif; font-size: 12px; font-weight: 200;" fill="rgb(33, 33, 33)" stroke="none" stroke-width="1px">80</text><text x="240.69010416666669" y="0" dx="0em" dy="0.95em" style="text-anchor: middle; visibility: inherit; font-family: Roboto, sans-serif; font-size: 12px; font-weight: 200;" fill="rgb(33, 33, 33)" stroke="none" stroke-width="1px">90</text><text x="264.7591145833333" y="0" dx="0em" dy="0.95em" style="text-anchor: middle; visibility: inherit; font-family: Roboto, sans-serif; font-size: 12px; font-weight: 200;" fill="rgb(33, 33, 33)" stroke="none" stroke-width="1px">100</text><text x="288.828125" y="0" dx="0em" dy="0.95em" style="text-anchor: middle; visibility: hidden; font-family: Roboto, sans-serif; font-size: 12px; font-weight: 200;" fill="rgb(33, 33, 33)" stroke="none" stroke-width="1px">110</text></g><line x1="0" y1="0" x2="288.828125" y2="0" fill="rgb(0, 0, 0)" stroke="rgb(204, 204, 204)" stroke-width="1px"></line></g></g></g></g></svg>