<svg viewBox="0 0 330 200" xmlns="http://www.w3.org/2000/svg"><g><g><g><g><g><line x1="41.171875" y1="164.1869160816292" x2="36.171875" y2="164.1869160816292" style="visibility: inherit;" fill="rgb(0, 0, 0)" stroke="rgb(204, 204, 204)" stroke-width="1px"></line><line x1="41.171875" y1="81.5907459438988" x2="36.171875" y2="81.5907459438988" style="visibility: inherit;" fill="rgb(0, 0, 0)" stroke="rgb(204, 204, 204)" stroke-width="1px"></line><line x1="41.171875" y1="14.104761087788772" x2="36.171875" y2="14.104761087788772" style="visibility: inherit;" fill="rgb(0, 0, 0)" stroke="rgb(204, 204, 204)" stroke-width="1px"></line></g><g transform="translate(31.171875, 0)"><text x="0" y="164.1869160816292" dx="0em" dy="0.3em" style="text-anchor: end; visibility: inherit; font-family: Roboto, sans-serif; font-size: 12px; font-weight: 200;" fill="rgb(33, 33, 33)" stroke="none" stroke-width="1px">0.4</text><text x="0" y="81.5907459438988" dx="0em" dy="0.3em" style="text-anchor: end; visibility: inherit; font-family: Roboto, sans-serif; font-size: 12px; font-weight: 200;" fill="rgb(33, 33, 33)" stroke="none" stroke-width="1px">0.5</text><text x="0" y="14.104761087788772" dx="0em" dy="0.3em" style="text-anchor: end; visibility: inherit; font-family: Roboto, sans-serif; font-size: 12px; font-weight: 200;" fill="rgb(33, 33, 33)" stroke="none" stroke-width="1px">0.6</text></g><line x1="41.171875" y1="0" x2="41.171875" y2="177" fill="rgb(0, 0, 0)" stroke="rgb(204, 204, 204)" stroke-width="1px"></line></g></g><g transform="translate(41, 0)" clip-path="url(#clip_0)"><clipPath id="clip_0"><rect width="288" height="177"></rect></clipPath><g><g><g><line x1="0" y1="0" x2="0" y2="177" fill="rgb(0, 0, 0)" stroke="rgb(66, 66, 66)" stroke-width="1px" opacity="0.25"></line><line x1="26.257102272727273" y1="0" x2="26.257102272727273" y2="177" fill="rgb(0, 0, 0)" stroke="rgb(66, 66, 66)" stroke-width="1px" opacity="0.25"></line><line x1="52.51420454545455" y1="0" x2="52.51420454545455" y2="177" fill="rgb(0, 0, 0)" stroke="rgb(66, 66, 66)" stroke-width="1px" opacity="0.25"></line><line x1="78.77130681818181" y1="0" x2="78.77130681818181" y2="177" fill="rgb(0, 0, 0)" stroke="rgb(66, 66, 66)" stroke-width="1px" opacity="0.25"></line><line x1="105.0284090909091" y1="0" x2="105.0284090909091" y2="177" fill="rgb(0, 0, 0)" stroke="rgb(66, 66, 66)" stroke-width="1px" opacity="0.25"></line><line x1="131.28551136363635" y1="0" x2="131.28551136363635" y2="177" fill="rgb(0, 0, 0)" stroke="rgb(66, 66, 66)" stroke-width="1px" opacity="0.25"></line><line x1="157.54261363636363" y1="0" x2="157.54261363636363" y2="177" fill="rgb(0, 0, 0)" stroke="rgb(66, 66, 66)" stroke-width="1px" opacity="0.25"></line><line x1="183.7997159090909" y1="0" x2="183.7997159090909" y2="177" fill="rgb(0, 0, 0)" stroke="rgb(66, 66, 66)" stroke-width="1px" opacity="0.25"></line><line x1="210.0568181818182" y1="0" x2="210.0568181818182" y2="177" fill="rgb(0, 0, 0)" stroke="rgb(66, 66, 66)" stroke-width="1px" opacity="0.25"></line><line x1="236.31392045454547" y1="0" x2="236.31392045454547" y2="177" fill="rgb(0, 0, 0)" stroke="rgb(66, 66, 66)" stroke-width="1px" opacity="0.25"></line><line x1="262.5710227272727" y1="0" x2="262.5710227272727" y2="177" fill="rgb(0, 0, 0)" stroke="rgb(66, 66, 66)" stroke-width="1px" opacity="0.25"></line><line x1="288.828125" y1="0" x2="288.828125" y2="177" fill="rgb(0, 0, 0)" stroke="rgb(66, 66, 66)" stroke-width="1px" opacity="0.25"></line></g><g><line x1="0" y1="164.1869160816292" x2="288.828125" y2="164.1869160816292" fill="rgb(0, 0, 0)" stroke="rgb(66, 66, 66)" stroke-width="1px" opacity="0.25"></line><line x1="0" y1="81.5907459438988" x2="288.828125" y2="81.5907459438988" fill="rgb(0, 0, 0)" stroke="rgb(66, 66, 66)" stroke-width="1px" opacity="0.25"></line><line x1="0" y1="14.104761087788772" x2="288.828125" y2="14.104761087788772" fill="rgb(0, 0, 0)" stroke="rgb(66, 66, 66)" stroke-width="1px" opacity="0.25"></line></g></g></g><g><g><line x1="26.257102272727273" y1="0" x2="26.257102272727273" y2="177" fill="rgb(0, 0, 0)" stroke="rgb(153, 153, 153)" stroke-width="1.5px"></line></g></g><g><g><g><g><g><path stroke="rgb(51, 187, 238)" stroke-width="2px" d="M31.508522727272727,143.2277304089799L36.75994318181818,154.65094548712509L42.01136363636363,151.71428571428572L47.26278409090909,152.7816571552356L52.51420454545455,153.07050713871217L57.765625,150.16143633646445L63.01704545454545,149.78620332188441L68.2684659090909,152.08388211466144L73.51988636363636,142.90899332460435L78.77130681818181,129.65975247020862L84.02272727272727,124.73842187489537L89.27414772727272,129.50644621808658L94.52556818181819,120.56524836809875L99.77698863636364,115.47344447687514L105.0284090909091,111.761652260138L110.27982954545455,101.55072077832573L115.53125,98.07115799184328L120.78267045454545,90.59453892274784L126.0340909090909,92.05206590745273L131.28551136363635,96.28403497822924L136.5369318181818,97.45274948915676L141.78835227272728,97.37446515996076L147.03977272727272,100.81069760967712L152.29119318181816,97.33447947913568L157.54261363636363,97.70803183769885L162.7940340909091,100.95274876890042L168.04545454545453,101.14667454332918L173.296875,97.05792573994546L178.54829545454544,96.7649183444078L183.7997159090909,95.49758463513027L189.05113636363637,91.74542007359464L194.3025568181818,91.34989998677588L199.55397727272728,94.27848364415038L204.80539772727272,94.9030966616905L210.0568181818182,100.21810549580105L215.30823863636365,98.90333556380291L220.5596590909091,99.08864311030624L225.81107954545456,102.30834760728779L231.0625,102.79710567546562L236.31392045454547,102.30702626482095L241.5653409090909,102.68928776450637L246.81676136363635,103.08124054922891L252.0681818181818,103.15955268468481L257.31960227272725,103.43190141870156L262.5710227272727,103.63493127331508L267.8224431818182,103.78626077619771" style="fill: none;" fill="none"></path></g><g><path stroke="rgb(204, 51, 17)" stroke-width="2px" d="M31.508522727272727,156.69563905645427L36.75994318181818,146.03952138586138L42.01136363636363,136.97799084390658L47.26278409090909,136.32672804252192L52.51420454545455,141.70202061304502L57.765625,134.0046301108306L63.01704545454545,127.44282613479291L68.2684659090909,119.53343191948237L73.51988636363636,112.1948251471291L78.77130681818181,105.98813993220315L84.02272727272727,94.65217275245031L89.27414772727272,89.46240716527797L94.52556818181819,75.49407962419689L99.77698863636364,63.448287739936504L105.0284090909091,57.879819638642104L110.27982954545455,48.77831768175272L115.53125,45.62366838365332L120.78267045454545,42.80960163256628L126.0340909090909,43.29817501429141L131.28551136363635,42.315931898991586L136.5369318181818,38.917135128510154L141.78835227272728,36.768566699604555L147.03977272727272,35.416681914553635L152.29119318181816,36.927590219023784L157.54261363636363,34.340782090183936L162.7940340909091,35.04518504796815L168.04545454545453,32.35468500730398L173.296875,29.06814701447977L178.54829545454544,28.74655624009032L183.7997159090909,27.45257954974177L189.05113636363637,27.426382559337487L194.3025568181818,27.17297052640211L199.55397727272728,27.10116879366193L204.80539772727272,26.230493753908625L210.0568181818182,27.450422409621723L215.30823863636365,23.699976995579142L220.5596590909091,24.04723159204586L225.81107954545456,26.983924640549574L231.0625,26.143378996809435L236.31392045454547,25.285714285714313L241.5653409090909,26.51050660095359L246.81676136363635,24.97703557341951L252.0681818181818,21.06852478169396L257.31960227272725,24.16458519065837L262.5710227272727,25.323038577391095" style="fill: none;" fill="none"></path></g></g></g></g><g opacity="0.2"><g><g><g><path stroke="rgb(51, 187, 238)" stroke-width="2px" d="M31.508522727272727,143.2277304089799L36.75994318181818,163.39642680112374L42.01136363636363,147.93105899327878L47.26278409090909,154.61780421185418L52.51420454545455,153.65512733360654L57.765625,143.69538562112854L63.01704545454545,148.87894436921405L68.2684659090909,158.0070007626821L73.51988636363636,119.6895948021751L78.77130681818181,95.91042818533795L84.02272727272727,111.44928820881366L89.27414772727272,143.2277304089799L94.52556818181819,96.3219335455403L99.77698863636364,101.29601565170235L105.0284090909091,101.29601565170235L110.27982954545455,73.56713305767533L115.53125,88.17753449678992L120.78267045454545,69.71539132376988L126.0340909090909,96.3219335455403L131.28551136363635,108.88473491876877L136.5369318181818,100.87894626055909L141.78835227272728,97.14631926464473L147.03977272727272,111.020626844421L152.29119318181816,87.37286236277454L157.54261363636363,98.80061939429021L162.7940340909091,110.59246133024314L168.04545454545453,101.71355551154579L173.296875,85.36882435565305L178.54829545454544,95.91042818533795L183.7997159090909,91.82036474256346L189.05113636363637,80.9977386709654L194.3025568181818,90.19690142186684L199.55397727272728,102.96900854740066L204.80539772727272,96.73389689844278L210.0568181818182,116.19759683653254L215.30823863636365,95.0888102595663L220.5596590909091,99.6305503269642L225.81107954545456,111.87844657322192L231.0625,104.22873427260032L236.31392045454547,100.87894626055909L241.5653409090909,103.80834915905645L246.81676136363635,104.22873427260032L252.0681818181818,103.38844094425436L257.31960227272725,104.22873427260032L262.5710227272727,104.22873427260032L267.8224431818182,104.22873427260032" style="fill: none;" fill="none"></path></g><g><path stroke="rgb(204, 51, 17)" stroke-width="2px" d="M31.508522727272727,156.69563905645427L36.75994318181818,138.2954756451732L42.01136363636363,125.5199862563219L47.26278409090909,135.21343417126926L52.51420454545455,152.81294858098823L57.765625,117.2415568669332L63.01704545454545,112.01586132624688L68.2684659090909,100.10201511668039L73.51988636363636,93.46239334202839L78.77130681818181,89.6435936029396L84.02272727272727,64.97540807206117L89.27414772727272,75.27225992834492L94.52556818181819,38.52502594148635L99.77698863636364,31.037572468397666L105.0284090909091,42.32630639435701L110.27982954545455,23.698579038015463L115.53125,36.63888625143394L120.78267045454545,34.76234781582061L126.0340909090909,44.72211440134334L131.28551136363635,39.47167284850662L136.5369318181818,29.18914695684026L141.78835227272728,30.5746096159213L147.03977272727272,31.501115096977916L152.29119318181816,41.372340027436316L157.54261363636363,26.891491857659567L162.7940340909091,37.10954046514997L168.04545454545453,24.608049095251637L173.296875,19.633448609359267L178.54829545454544,27.808850745687653L183.7997159090909,23.698579038015463L189.05113636363637,27.349868053738184L194.3025568181818,26.433682593773387L199.55397727272728,26.891491857659567L204.80539772727272,23.698579038015463L210.0568181818182,31.037572468397666L215.30823863636365,12.955932369779985L220.5596590909091,25.0636045386882L225.81107954545456,35.69944734002223L231.0625,23.698579038015463L236.31392045454547,22.791338112267276L241.5653409090909,30.112186695053335L246.81676136363635,20.532973031741165L252.0681818181818,9.880468462847812L257.31960227272725,33.36115126809158L262.5710227272727,28.72845057278042" style="fill: none;" fill="none"></path></g></g></g></g></g></g><g transform="translate(41, 177)" clip-path="url(#clip_1)"><clipPath id="clip_1"><rect width="288" height="23"></rect></clipPath><g><g><line x1="0" y1="0" x2="0" y2="5" style="visibility: inherit;" fill="rgb(0, 0, 0)" stroke="rgb(204, 204, 204)" stroke-width="1px"></line><line x1="26.257102272727273" y1="0" x2="26.257102272727273" y2="5" style="visibility: inherit;" fill="rgb(0, 0, 0)" stroke="rgb(204, 204, 204)" stroke-width="1px"></line><line x1="52.51420454545455" y1="0" x2="52.51420454545455" y2="5" style="visibility: inherit;" fill="rgb(0, 0, 0)" stroke="rgb(204, 204, 204)" stroke-width="1px"></line><line x1="78.77130681818181" y1="0" x2="78.77130681818181" y2="5" style="visibility: inherit;" fill="rgb(0, 0, 0)" stroke="rgb(204, 204, 204)" stroke-width="1px"></line><line x1="105.0284090909091" y1="0" x2="105.0284090909091" y2="5" style="visibility: inherit;" fill="rgb(0, 0, 0)" stroke="rgb(204, 204, 204)" stroke-width="1px"></line><line x1="131.28551136363635" y1="0" x2="131.28551136363635" y2="5" style="visibility: inherit;" fill="rgb(0, 0, 0)" stroke="rgb(204, 204, 204)" stroke-width="1px"></line><line x1="157.54261363636363" y1="0" x2="157.54261363636363" y2="5" style="visibility: inherit;" fill="rgb(0, 0, 0)" stroke="rgb(204, 204, 204)" stroke-width="1px"></line><line x1="183.7997159090909" y1="0" x2="183.7997159090909" y2="5" style="visibility: inherit;" fill="rgb(0, 0, 0)" stroke="rgb(204, 204, 204)" stroke-width="1px"></line><line x1="210.0568181818182" y1="0" x2="210.0568181818182" y2="5" style="visibility: inherit;" fill="rgb(0, 0, 0)" stroke="rgb(204, 204, 204)" stroke-width="1px"></line><line x1="236.31392045454547" y1="0" x2="236.31392045454547" y2="5" style="visibility: inherit;" fill="rgb(0, 0, 0)" stroke="rgb(204, 204, 204)" stroke-width="1px"></line><line x1="262.5710227272727" y1="0" x2="262.5710227272727" y2="5" style="visibility: inherit;" fill="rgb(0, 0, 0)" stroke="rgb(204, 204, 204)" stroke-width="1px"></line><line x1="288.828125" y1="0" x2="288.828125" y2="5" style="visibility: inherit;" fill="rgb(0, 0, 0)" stroke="rgb(204, 204, 204)" stroke-width="1px"></line></g><g transform="translate(0, 8)"><text x="0" y="0" dx="0em" dy="0.95em" style="text-anchor: middle; visibility: hidden; font-family: Roboto, sans-serif; font-size: 12px; font-weight: 200;" fill="rgb(33, 33, 33)" stroke="none" stroke-width="1px">-5</text><text x="26.257102272727273" y="0" dx="0em" dy="0.95em" style="text-anchor: middle; visibility: inherit; font-family: Roboto, sans-serif; font-size: 12px; font-weight: 200;" fill="rgb(33, 33, 33)" stroke="none" stroke-width="1px">0</text><text x="52.51420454545455" y="0" dx="0em" dy="0.95em" style="text-anchor: middle; visibility: inherit; font-family: Roboto, sans-serif; font-size: 12px; font-weight: 200;" fill="rgb(33, 33, 33)" stroke="none" stroke-width="1px">5</text><text x="78.77130681818181" y="0" dx="0em" dy="0.95em" style="text-anchor: middle; visibility: inherit; font-family: Roboto, sans-serif; font-size: 12px; font-weight: 200;" fill="rgb(33, 33, 33)" stroke="none" stroke-width="1px">10</text><text x="105.0284090909091" y="0" dx="0em" dy="0.95em" style="text-anchor: middle; visibility: inherit; font-family: Roboto, sans-serif; font-size: 12px; font-weight: 200;" fill="rgb(33, 33, 33)" stroke="none" stroke-width="1px">15</text><text x="131.28551136363635" y="0" dx="0em" dy="0.95em" style="text-anchor: middle; visibility: inherit; font-family: Roboto, sans-serif; font-size: 12px; font-weight: 200;" fill="rgb(33, 33, 33)" stroke="none" stroke-width="1px">20</text><text x="157.54261363636363" y="0" dx="0em" dy="0.95em" style="text-anchor: middle; visibility: inherit; font-family: Roboto, sans-serif; font-size: 12px; font-weight: 200;" fill="rgb(33, 33, 33)" stroke="none" stroke-width="1px">25</text><text x="183.7997159090909" y="0" dx="0em" dy="0.95em" style="text-anchor: middle; visibility: inherit; font-family: Roboto, sans-serif; font-size: 12px; font-weight: 200;" fill="rgb(33, 33, 33)" stroke="none" stroke-width="1px">30</text><text x="210.0568181818182" y="0" dx="0em" dy="0.95em" style="text-anchor: middle; visibility: inherit; font-family: Roboto, sans-serif; font-size: 12px; font-weight: 200;" fill="rgb(33, 33, 33)" stroke="none" stroke-width="1px">35</text><text x="236.31392045454547" y="0" dx="0em" dy="0.95em" style="text-anchor: middle; visibility: inherit; font-family: Roboto, sans-serif; font-size: 12px; font-weight: 200;" fill="rgb(33, 33, 33)" stroke="none" stroke-width="1px">40</text><text x="262.5710227272727" y="0" dx="0em" dy="0.95em" style="text-anchor: middle; visibility: inherit; font-family: Roboto, sans-serif; font-size: 12px; font-weight: 200;" fill="rgb(33, 33, 33)" stroke="none" stroke-width="1px">45</text><text x="288.828125" y="0" dx="0em" dy="0.95em" style="text-anchor: middle; visibility: hidden; font-family: Roboto, sans-serif; font-size: 12px; font-weight: 200;" fill="rgb(33, 33, 33)" stroke="none" stroke-width="1px">50</text></g><line x1="0" y1="0" x2="288.828125" y2="0" fill="rgb(0, 0, 0)" stroke="rgb(204, 204, 204)" stroke-width="1px"></line></g></g></g></g></svg>